<mxfile host="app.diagrams.net" modified="2021-09-15T03:52:18.583Z" agent="5.0 (Macintosh; Intel Mac OS X 10_15_7) AppleWebKit/537.36 (KHTML, like Gecko) Chrome/93.0.4577.63 Safari/537.36" etag="SAkcIQsehQ1V-Qz-l2hc" version="15.2.5" type="github">
  <diagram id="DPyeB0TajzYaM26trzW2" name="Page-1">
    <mxGraphModel dx="1685" dy="941" grid="1" gridSize="10" guides="1" tooltips="1" connect="1" arrows="1" fold="1" page="1" pageScale="1" pageWidth="827" pageHeight="1169" math="0" shadow="0">
      <root>
        <mxCell id="0" />
        <mxCell id="1" parent="0" />
        <mxCell id="FT5akpQHFOftVIUhpczF-2" value="" style="rounded=0;whiteSpace=wrap;html=1;fillColor=#dae8fc;strokeColor=#6c8ebf;" vertex="1" parent="1">
          <mxGeometry x="440" y="30" width="530" height="300" as="geometry" />
        </mxCell>
        <mxCell id="FT5akpQHFOftVIUhpczF-7" value="" style="rounded=0;whiteSpace=wrap;html=1;fillColor=#fff2cc;strokeColor=#d6b656;" vertex="1" parent="1">
          <mxGeometry x="450" y="70" width="130" height="240" as="geometry" />
        </mxCell>
        <mxCell id="FT5akpQHFOftVIUhpczF-23" style="edgeStyle=none;rounded=0;orthogonalLoop=1;jettySize=auto;html=1;" edge="1" parent="1" source="FT5akpQHFOftVIUhpczF-1" target="FT5akpQHFOftVIUhpczF-22">
          <mxGeometry relative="1" as="geometry" />
        </mxCell>
        <mxCell id="FT5akpQHFOftVIUhpczF-1" value="" style="html=1;verticalLabelPosition=bottom;labelBackgroundColor=#ffffff;verticalAlign=top;shadow=0;dashed=0;strokeWidth=1;shape=mxgraph.ios7.misc.iphone;strokeColor=#666666;fillColor=#f5f5f5;fontColor=#333333;" vertex="1" parent="1">
          <mxGeometry x="80" y="585" width="60" height="120" as="geometry" />
        </mxCell>
        <mxCell id="FT5akpQHFOftVIUhpczF-3" value="&lt;b&gt;&lt;font style=&quot;font-size: 13px&quot;&gt;NEI网关实验室(web)：&lt;/font&gt;&lt;/b&gt;" style="text;html=1;strokeColor=none;fillColor=none;align=left;verticalAlign=middle;whiteSpace=wrap;rounded=0;" vertex="1" parent="1">
          <mxGeometry x="450" y="40" width="150" height="20" as="geometry" />
        </mxCell>
        <mxCell id="FT5akpQHFOftVIUhpczF-4" value="&lt;b&gt;&lt;i&gt;&lt;font style=&quot;font-size: 14px&quot;&gt;单接口&lt;/font&gt;&lt;/i&gt;&lt;/b&gt;" style="rounded=0;whiteSpace=wrap;html=1;fillColor=#dae8fc;strokeColor=#6c8ebf;" vertex="1" parent="1">
          <mxGeometry x="455" y="75" width="120" height="30" as="geometry" />
        </mxCell>
        <mxCell id="FT5akpQHFOftVIUhpczF-5" value="我的" style="rounded=0;whiteSpace=wrap;html=1;fillColor=#dae8fc;strokeColor=#6c8ebf;" vertex="1" parent="1">
          <mxGeometry x="455" y="135" width="120" height="30" as="geometry" />
        </mxCell>
        <mxCell id="FT5akpQHFOftVIUhpczF-6" value="场景" style="rounded=0;whiteSpace=wrap;html=1;fillColor=#dae8fc;strokeColor=#6c8ebf;" vertex="1" parent="1">
          <mxGeometry x="455" y="105" width="120" height="30" as="geometry" />
        </mxCell>
        <mxCell id="FT5akpQHFOftVIUhpczF-8" value="&lt;b&gt;&lt;font style=&quot;font-size: 14px&quot;&gt;接口path: api/homepage/block/page&lt;/font&gt;&lt;/b&gt;" style="text;html=1;strokeColor=default;fillColor=none;align=left;verticalAlign=middle;whiteSpace=wrap;rounded=0;" vertex="1" parent="1">
          <mxGeometry x="590" y="75" width="270" height="25" as="geometry" />
        </mxCell>
        <mxCell id="FT5akpQHFOftVIUhpczF-9" value="&lt;b&gt;Mock 文件 - 0&lt;/b&gt;" style="rounded=0;whiteSpace=wrap;html=1;strokeColor=default;align=left;" vertex="1" parent="1">
          <mxGeometry x="612" y="120" width="250" height="20" as="geometry" />
        </mxCell>
        <mxCell id="FT5akpQHFOftVIUhpczF-10" value="&lt;b&gt;Mock 文件 - 1&lt;/b&gt;" style="rounded=0;whiteSpace=wrap;html=1;strokeColor=default;align=left;" vertex="1" parent="1">
          <mxGeometry x="612" y="150" width="250" height="20" as="geometry" />
        </mxCell>
        <mxCell id="FT5akpQHFOftVIUhpczF-11" value="&lt;b&gt;Mock 文件 - 2&lt;/b&gt;" style="rounded=0;whiteSpace=wrap;html=1;strokeColor=default;align=left;" vertex="1" parent="1">
          <mxGeometry x="612" y="180" width="250" height="20" as="geometry" />
        </mxCell>
        <mxCell id="FT5akpQHFOftVIUhpczF-12" value="&lt;b&gt;Mock 文件 - 3&lt;/b&gt;" style="rounded=0;whiteSpace=wrap;html=1;strokeColor=default;align=left;" vertex="1" parent="1">
          <mxGeometry x="612" y="210" width="250" height="20" as="geometry" />
        </mxCell>
        <mxCell id="FT5akpQHFOftVIUhpczF-18" style="rounded=0;orthogonalLoop=1;jettySize=auto;html=1;dashed=1;" edge="1" parent="1" source="FT5akpQHFOftVIUhpczF-13" target="FT5akpQHFOftVIUhpczF-17">
          <mxGeometry relative="1" as="geometry" />
        </mxCell>
        <mxCell id="FT5akpQHFOftVIUhpczF-13" value="" style="shape=image;verticalLabelPosition=bottom;labelBackgroundColor=#ffffff;verticalAlign=top;aspect=fixed;imageAspect=0;image=data:image/png,iVBORw0KGgoAAAANSUhEUgAAANcAAADWCAYAAABCIRcQAAAgAElEQVR4Ae1d27UctRI1NwLgG/MN/POKA5MBRMAjAkIAQgEcAYTAslMgBfBd+8D21CmXpC11Tbd6RlqrT+lRqpdqSz0zPXOevFplRWBFIDUCf/7554O8J6lSl7AVgRWBVwtclST4559/KqO3MXQPPh61UiG4GHBSGIf6vVz019KsBWJMGUvKZXsPSr9oC23ooXbuHjbPoqMnRiG43nrrrVf2evLkyaO2HbvFOv399NNPe2JZ5f31119fUW6J7hFL6qYu1Ufwca6lrFPerVP4q5YQXBCwriev1MRTgk1wzRZX1UeCazb7j7BHWW/wLHBVNpJPPvlEjWOT71bAhZMJCU16RHIfrbO52P8xLHBVwKXu6kqwbwVcRyf2DPqV9QbPAtcNg0s5XbCB2DcnSomj3hYqOmcAyBYbSjHy/SngOlNAe2w96uSq2VgbY8JYHlvHuG+rPqrginR4nbTzrNSDqNROAddZg9SyW028UnBtv3JbeEQSqj4q4DrC/tYaXmPcrmutPgQuH0TfvoZDR8hUE68WYI4p4Kr5aGNs69EcjpNGPOyDjxm3hTVdtTHaMQON7Iz6uKYtOgSuGQKx1QYELQqclTsDuFo2Wntt3c/zbfJ+9tlnrRx5GFdOLso8Oy3Fin5JAet9Q8MqxaJ8++23p72ePn3a/CzvCHB9+eWXr7777rtX33zzzRuxZd+zZ89e227XhIvPPsjiHK6Vb//8889SrijgQkyp54xU8RExVot8cmHBuGhQgOCduSiBPAJcuH1sFeUWE2ulyGrp4ngrXtCXGS/q3ZMip7lB1ahqkwwur2yBSw3xv3wKIBBjBRCRLLvxca0UWaoXLXBBpweX8lpO1b8HnwdXFFP4qZargmvm4I4kixrUiC8CBEFgqQII8JQWvldWZGvUt3e8Ihuu3efBZWNp66odVwWXasQRfHsnyxHg+u2339JCu3e80gzvEHQKcM18YjHWeydLNrjsTlqqQ2fWWuwdL67TnvQU4PIByVpgL7fWbuncO1kywYUTiYCyt4esk0JnVsmOF9aHV5aNW+WcElxbne6Z3wIVZWUnC+WWaCa4VFm//PJLyZzu/r3j1W1gwoRTgktN+C3x6d0F904WFRDKaZMpS4353vFS7crkOyW4MgOQJWvvZMkEBE4k3hbWqAJUNZ57x0u1K5PvdOCqLX72GF5rIEAordNy72TJBJeaUK0YqHLAlxUv2KQmcWZ+KL6qdimywHP1t+IzA6TIIrhaAchKlpYejh8BLurOoJnxUpNYWW+VR4mBapciCzwLXJN9WTLzVk5NAoVvgevyuzJKvBa4KsDCjoiEyirr5LpEUj0h1FNJ4btoL9dUu8oSHo+sk6sCsAWuS7Ksk2udXK/f0LikRVzLTJZYw+PedXJd4qGeEMqJpPJctJdrql1lCY9H1sm1Tq7HGVFoZW5GahKrwFH4Cm496lbtejSp0ljgWuCqpMdlaIFr3Rau28ILHlJrC1wLXIeA66effnr4aj6+nl+67Ffz/W0MPvzmw7b8mn9JTq3/+++/f6T/xYsXaQBb4FrgOgRcSuJ5QO3RnvX7XOprm8wYKbuMapciCzzrNZf4mss/SmTbI+DiScUE8m32j1DKyvxAWvERPEpRk3jE99KcTLsUWeBZ4BLBVQsofgmrtKgj/QTHyFw7Z51cfbdyKuhruWDHFrgSwKXs6kx6AEcBj8JDmSW6Tq4FrtRdH7uPUhRAqLc5iqwSAK7Zv8C1wLXAVTk9e8DH0450gWuB67Tg4psaysnFhO8Bywiv1bPAtcB1WnDx9lMBF4Fik7/Wx7EtlODiJkB7R6jiI3iUor5xsMV3PzfTLkUWeNYbGpVbMjVZlMTzi93TjgCpzCe41GSo8Sk+qvFa4KokHRZWfeNASYJMHtWuzGTJljUKppE4qv/3OdPHBa4FLvnLkr2JV7tNi2T1go38pDXQZf4LIdiulAWuBa6rgauWgFs/kCagSGvAwtg6uS6roYL+MqNeW6+5KpuIuhNHp41P6kxZXvaW9jq5LgBZ4KqAAUmGACllb0BYcPXeFm4BD+aWTjH0W7tqccuMl5rEW/2282u+cUy1i/wtuk6uCliPSDwliW3SjNYJuCN8VJN41LdoXgsIGFftUmSBZ4ErAVzK66TM268oeUb7FrguUFngqoABCYYvE9ZuuxhK5YQoJZ6XPyLLy+ixqwdIPKFKc0o+0h7SER8511OsUcmea/V7G6L2AlcDXPiH2krJTJY9ZbXA0pucR4ALa9Rr51Z+JSdOBy4YvOelfocpExD4mn/LR/AoRbHr/fffL+rDqUBb3nvvvWYS7w0unNjPnz9/sNHaSpuvRZXYQ7cCYkUWeK7+mqt0+6Ma2MtHfaSl+UoSq4lX0jHSr9jF12+Rj+wDpazaaaf6SFm15FNlWRtHYnStOacD17UCUZPLxavxbEkWRX5NN8ZKMrbY5XXOKKvkt7f9iPYClxh1u4i2zumjiRfJosxeGslS7cLcaL7tU2UpdmfKUvQdwbPAlRT1WZMl065ZZSUtYbqYw8GF+3dcMOTMJTPxMuOQadessjLjlSnLg4uvVUn5elPVOfyGhvqWt2KIvZVR+Ed5rJ7RxLMyRu3gvEjWqF2UaekRsrxPvm3ty6hnyvfgIpg8Ve0eAtctnFzKUxVIzr3LEYBQfMy0S9F3BM9h4PJHIz6jyCqZuw9lkUY2YiwzWWq6qF/hAW+mXbPKUmPB2Hlq59u65+ttHwYufzTCkFkLA04a2ZmReDX5kU70teZk2EXds8qifbNRgosHCanPfdXuodtCKHv69Okr3Fr1XFhsy482L9u/pU4dlrIOuay/8847zU/jwdsqAMtXX331yK/IfvC0gAVd0OkX07cVu46QhZhGvts+2O4vO67UMZ98ts6+UYqc9rGO2q2c4PgwuCKlo32lHWJEXqYsLJxSwNey9R5kRTGI1iPqi+YqfZmyvL6SbCUnwDMFuLxTe7RLgbO67wEQmT7a2N1yfRhcuHVBYJh8pLccrJJv+H2J7Fu5ljzc0pTsYX8mIDJl0b5bpsCDLbX1fHRykfGWg9PjW2biURZjbBfI1gFo2lja2PijMi1Z0ElZJUq7rA1R3coq2VXScWv9iE8r9uB5BC4G9d6Dx2SIEi8Kqk08zvWUgGCMS5QnV20NIrsieYpdmbK8z7fajnIgin8RXLXFvcWgwV/vMxLdllJQCYhaXLwsK9fW7clVkpcJiF5ZPkZR3Ep2n72fviIPSrlg1zIE19mDkGV/67RhgBVAtGRxUXja+CS2PvUCws719UxZXvattrlWLVoEF1F6qwHyftlkZl09bQgIL9O2R5KYdlg5qNdkEfBY+Gy7rD227u279XYLVBwPwYVFubcLJ4v3GR/8KgV8fq5vP3v27BV+ggD/HMFS1Hlh7IMPPmi+CfHhhx++nlOShX7wtRIddipF8dH7fEttmx9KvMDzGlx2x1Mn3wNfLS61MR8bACdK9GueAIpsFVzWnx6/7bx7q78G1705vre/JXBFgNuzbwRce8furPoWuHZauQWunQI9kZoFrp0WY4Frp0BPpGaBa6fFWODaKdATqVng2mkxFrh2CvREaha4dlqMBa6dAj2RmgWunRZjgWunQE+kZoFrp8VY4Nop0BOpCcH1+eefv/4aNR4BGr2O+AwF//Bg1N7aPMQEF586sLx//PFHc0lVcP3www8PT3GAf+T65ZdfXs/LfEKj6aDIgA+guUa9eYbY27ijrv6DC9G8VLYQXKMfYvonAtDeu/gfGRnxxfsRybA8AEGrqOBSZLV08QkKJGNku+07YgPEb17a+Nm6tc3XI76ZfyjpDXBhYbxTo20EY+9CcI3aPDJPAYQKLpw8BMdI7OzcWcGV+c/vTgUuLCgSLNolehKP80cSZMscgov6SVXbye9pNJ88AESrqOBSgNrSxfFZwRX98zvEsnYxJxlz0lOCK0qmkT4u9F6U4BqxdXSOAggVXHiaHQUnkD2FlPjZOajPCq7Mkyvzx2mVGPfwvHFbiMmjScZ53FXQ3rtw4awNtOtaNBNciiw1prOBi5tF5gZ46pNLTVLykTKR1UTI4stcOPoA6v2yYwog1JNLkaXGaiZwEViwfWSNSvE/NbhsEql1BgJ07zKycKpfJT4FEHuByybxTOCyeRC95irFNupnfmHs7sBlA2KDukc9ApddDGubr4NP5bVzZwKXjfGs4IrWyMazp34tcNlNysa0p36V11w2OD3GbOVFQPChIpIq41I+hIWv9wAufFDOnyMoUf9heilBM8HFn08o2dTT/+LFi60p+Gj+TYELnpUW9JHXYgMLYzeKUv0ewKWcgnhiQilbwTVyd1FaO9uffQreHLiUxVV58PmVDX6pfk/gYmKTIiasA4BK2QIu6iqtxZZ+2JW5Od80uLYG6vnz5wtc/6FFObn2ANcW8LTmZv4rYoTt5sDlAeXbtZ3V866T6xIt+8On9vRAndce4KJu0hZgesbXyXVZ76vXcLunLM493RbW4qH+qvCW28Ka/q1jC1wNSPnTp8FeHV7guoTnHm4LAa7MknJbWDuiM43dW1YJXN7frJMLcr2sLZtFJiAyZa2T68mT6i0RE4zUHsm2b29AZOqLwGV9o88eEJENVlYkA7LQr8jy8ksAxFvjtDGi0Ke+fd6SBfn+NVfJrpnB5WO7pT10cpWSI1rALcYdPdcCIvKNfQogemQxKUkRB1tX42LfhKCtnqqvkxRZKlAXuBonFz8ZR9Lgw1ZQXmyDZhbsjFhAXKyD8kI/kiAaZx95SdkPygtjqNf+KYLdYPAkB+eWaBQvGyfUcf31118PQKqB6ffff39DH222FE+rRDrsOvGJlpLd7KcsK8+uPfr9ExqltT8CXPS5RGE/7IK/NoZso49XbW2sz0MnF3Y/GBIpQV/Ub5WO1rnr2sRmnfR///vfw60Q26C+zj7fb+VzjH2ktX4r19exSD42jBOpjUvUx3EkCOzxtlAnx8BHnVYe66Dg4bwaBV9UKJ9jlM12RI8AV2SH78PXlRgDu97sI7Xzav5uApdVskedDu9FEUwmKuvU7dvsL1HselmF4CrpYj9241ZRZZXA1ZIfjc8KLtWuyKeorwtcNqFgyN6FSXNGegS4Zv35ATWJM9dZyVXFLmCgdlpZPV3gss4eAS4LbmvLGeo94GotnnLaIFbr5Lq8422TvlRXwIVcs6W2VqcC1xlAVLKxB1x28aJ6FriQGABgyWbbz9vCWjJFtkZ9ahJb/VvrkR2+T7XLzyu1i+BqnRI8uRDsjICXDLT9WwN85PxMcOF2r7Q+6OcYAWFj6Ou94PLzR9pqEmeul2KnapciCzwhuLg4NecILlVRBl/NntnHMsGVCQjlFERsFaCqa9xKYiX/etdbsa1lF3UqssBTBBd3wBI9Alx4mx32lN5uL9k6Q38muOzJVfKNgGjdVQA0JRm234LLy/TtVvIpSWx1Z9RbNmFcsQtxVUsILiQCPowlRZ0X+/ChYimoth+7bNZFG85Iv/76a2lN7Nfp8X0yxs7WEfuPP/64uj5Yp9aHulgn8CjxbMmSnPuPqZXEABOSGHYx3xQbazyKfS27Uk4uxRALoBo/DcqgNT23MoYPm1uxQhKduShJDIDtXRS7sDZqCU+u0mQAileJx/e3EqVnvAToUr+3ZYZ2y1bs1K2Y2Kc9rDzWQVm/ts8jerKTOMvHbLtkcI0EEU63EqVnPCuIM8spgYu3SogXeNQyum6q/BE+JYnv7uQaCWQPeFq8I/rPNqcELhubHnDN6L8CLvi7d8m2Sz65So76ndG3bVJsrcMGL79k11n77wFc/v9z2bzgCc2Ta8/1ng5crSS2gdtab+m6hfF7AFd2Emete7ZdwydXtKOgjxcd5k60FViY72WzDYpCSt0RJY+lrFsZ7COlLLR9H+dxLKKc36Izg4t+R9T31fxs/VY8c8bKsDG1/azb8ahOvhqdBlw1I+1YBqgow8pt1bnYEV9tzPKrfHZOra7ImxlcNd+isZK//DdPXNcSjWRes29qcDGYpAgEd6FSAHv6o8BaXRxnHyn7LS2Nsd9TzkU/x9inUHXOrOCK/KZPpK04kK91ciEn+JrLyoxssONb69OAC08J4PMWe/E/3tu+HvC0eK3cqA79P/74oxTjr7766sH20n+URz8SPdIz0gd9SpkVXKV42fipPuIfHuARLjxSFV14KgX9VvZIzO0cJfbTgEs1pAWY7HHYFRXumhxTkjjTNuizxdvDMcUuL4tzr0mPsCsz/kps1JxWZIFn+A0N5WjPDI4qqwQuHxA8QqTKzOBTAAHAHZHEPjZR+wi7GPeMlxaRT75vGnCphjBAe1HYVToVbDCVZMm0WQEX7FPsUmVZf7fWvV1Rwm+1y69bZvwV/9WcVmSBp+vkss6rhmQGSJEFu5Tik0WRvYVHTTzaxeQltbprsrhGnioxqfHQLmuHr9fsqsn2Y7Tdy9/S9jqitprT0dyorwtcVoD6duqWgIzMhV21woWzt4VRAke6Vb5orpp4LbtggyqLvtbioY7tCS7YBNujOI72KX5OAy7VkNFgjM7jydVKLLyTNKpjZJ4KCNpFIJNanV5Wy1clsVo8JXBZ+7xdLZmtcevz1npLF8bVnFZkgWf45FIN2RqU3vkEVysApWTp1Qd+m2Cl+WriKXapsjJBF9nl/Vbtaq0Nx738UmyVfsqsUTWnazLsmAwuv1AwJNN5JUAKD+zytlqHWY+SRZFPnl7f1cSjXTX5lKX4SX+3UtpF/yNKu7bq4vxIx2gfZdboYeDyRuFDZARztgt2KQUfePbajlu2aM4777zTvMXEPKWU7MJrMerm787zJwD2oB999FGaj0ocwEN/M6iicxpwKcbeCw8Wv7Wjgier4OmFlr4jxjN9zIpVj5wFrp5o7cS7wPXvL9sucD1OOPk11+Npq2UjsMC1wGXzgfUFLkZiA13gWuCK0meBK4pKZ98C1wJXlDILXFFUOvsWuBa4opRZ4Iqi0tm3wLXAFaXMAlcUlc6+Ba4FrihlFriiqHT2bQHXyFMWWz/n4tMfpFmfiSEOShnxWZG7lUd9GF3V8wa44Lj9evRZ61joHtsjfvVr6wq48BRHZE+kF3ylfozhCQ379Xg+oeH7Pvjgg+KHzQTWhx9++PDPHuzcqA6+Fgjffffd0Efvd+kpGuSeBV70NX/Excbm559/lnLd2xC1nz592vQRMVDLG+DCRAhA8LkAts3+GSntLNGazdEcLIBSsNiYX7uou8SD8cgG9tt50FcqTE5Qxa6aLKtDkWVtrNXxJESt0Acvw8aCdXwjXingVy6vM2or+sBTBFck9N76jkg8JcajdjEhrY5RWVZGb70FLiavIjdTltVnY2Xr4FHLI3BxxyDCvTL2z0xhM4NhqWIz/eW8zJOLdtEOtklL/RwHZd0CgmvGBbdt8HFeiVpZlBFRL4sx8nLZT39sm7wqICgD87wctrNOLtqm0Cg+Ud8jcJFBUXAPPKOJd+3YZNqVKUv1WwWXIi9TlqIPPGoJwcVdQVV2q3xIPHsSlIIKvj1jkAmITFk2BrUcGgFESd6ILGvnSL2UB74/BNeIwluZYxfxWom3NVaZdmXf+iq+ZQIiU1Zku80HjnsQldrD4IqUUvkZqGJ/ZhJnxiTTLnwJUynQmeED4p4JiExZqn9KvMAzBC4lMVVDZ+bLTOJMP+1pE922sk8BhJVVSxorC+u/JQcyAZEpS12jWpzs2BC4YAQ+cONXz0Fnv5AcuGjz22+/3dyJwa8Um3jqAo3yIan5wS8/PAZ9/vz5w4fBtq588BvJsnJZ/+KLLx6tsY8n4lr70Nr6C1mUS2rtRx8+yLZzSnUVXBn5yfxRcgI8w+BSnVIN2ZtPAQR4lKLIKiVHT79yWnie3nbJHiR8q1hAeL0luUp/TdbReci7hCg2m8AFwRTO+qwUzlvbFEDMBi6fiLWk87y2PTIPwPEx/Pvvvx/FlOCifFLotvWRtrXf1lVw2bUfqVvfHwIh/NkELkH+tCx4reEX3C4a6rODy9urtOkzqTIHPL0nlyq3xkcbSSNeFVxHJOIwuNRPxo9wStEJcEWLZfvOAi4kHy/Yb+vWn1K9lrycg/+n1SrgoX7Oi6jVZ+sRb6vvJsE1s1OtJMA4bwtri3sWcLUSkOM1X8lTorwtZGxxa+ULbwtLMti/xQ7KIJ05D4dPrpmdihbeJwLBxUWKaAlcXr4iK5J/rT4mL2mGHg8uH0+0VXBl2EMZM+fhTYILC+0B4JNBAUQJXCOymAxHUwKOVLVngcuvert9FXC1ErttVg5HzY57BRfA1AsszFHAhTc9VLBm8c382j8dXFFCo4/9tm4hxP4MauWW6pngUt4cyUomVQ4BRKrOK/Ep4IpuC6E/wwYrg3XQ1v9j4/oreUXeLJoOLhgGR1jg/Pfff/9w+TravMizlUZvGVt7aNcIuCI5kIevrePe/+gLuzhsQExRV762Dh7F7hcvXjB0b1DG5eXLlw96rTzaZPtG6lYO66DKu5gwWMkr5g78oU9vONvRcRVwWf2lnfBa/Qg4Sy1AI+Ci3LPQe/CxtsZ2nZR8s7lj547Wbw5c2BWVgG9NPEXH6KJkzVN8VB/c9TYd4T91eupti9oKuJA7meVq4GIAFKcyedTdR0k88Jy5eB/5WsXGGw+09hauLef5NvtnotbnqI7YnAZcDGzkyDX71AD5xItsujVw3aKPzLMWjXz3fWrutHRx/GonFxV4B67dVgM0O7hwGqgnQolvdh+ZI3tQJe/U3FHtXeCq/N7gESdXCSh2QRUe8C9wXaK2wFVJdCU44FF3n3tIvHvw8QKfek3JH+aOunnVNe7wZUnFqUweBqjl+KyJFy1s1NfyD+NH+EhbSRU79+BRckzNHdXedVtYOS2RnGcue4JrNjD5dVvgqiS6EhzwqLvPnonnF7rWhl18y5zU+66Cfm8fo8efvO1oqx+X1OJ0hrF1clUArSZxxkJz51eeU7R2cV5kw97g4pclCShuDqTsVzfAyKcz9S1wTQIuJg3B5ROSiQmqfvALPjvP1infApU2jFIPLqvP1he4KkmHQKkBskHdo67atfeuHiVsdOoQXLVY1QBhZWb6CLmUTep9Um8L1TWCfKvX69uzPWLHOrkqm0gtia+1sNDJU4XUAg19ql01cEEOrtFnCyP/rwGuSM9Z+ha4dgRXacdnP2gNEAQZeDinlmhbT0Ev2+tEmxd4t4DLy6buUj/H96QlW0r9C1w7gktJBACCp4qlABbbPScX54BSBin6Mk8u/01k6uSmQFq6LUSS8lJidSQP7SwBC7YtcB0ArtqC1N6EYHKWwOXlZp6CSiJvObkU+WfjWeA6AFy1JCEg7K7v68q7hQAaZGEuL3tiWaB6UNbsq40tcD2OzgLXTuDC1+RxO2R/1gB1fP2cfaDgaV34WQGlKD8/0CPL2unr8OPZs2fFt/4JZtDSbaH3ifHwuo5qc/28naX2AtdO4FJ3dfDNWHiiWpCM1lVwjcq/9jx1fRa4FrikXFng+vcfvgO4alngWuCScmWBa4FLvp9XkgU8WWXdFl6Sc90WVnZ0HI2zBki1a4Grb9tQ4qW+1lHXSJW3N58auXVbWNlE1sl1SaMFrsvJe4lKvbbAtcBVz5D/Rhe4Frjk21UlWdbJdcGdEi/19mzdFlZ2dARxxgDhSQTa1XrqQEmWa4HLPnHhE/KMn3PV/PH+qbmD9YvmztCHLYf5RXrZhi61q98WXlTNVcsEl/I8YGZSZII+c1XsO6I1wNXGbJwybcuUVQOU1bMLuFRjrGG9dejo0ZMJLkWWTZqeOhLRJiPqmU+yq3GO4uvjbcHV8pE+Wf9sH+bPVLyvim27gEsxJItHDYICCPWEUGQxcVpJp4yrdmXFVJXTAy7FT1XvrHy7gEtN+MwgtXQqgLBJXJOnyFKSiTwEInd1tjGOurUrM2aqLMYClHXM7QEXfaKP9M1SyLTyVfuuwUdfe+y5Crh6DLhGIBSZCiDUJFZkETiWMsFsX6lukxC3hUfHONKPH6jp8ankK/uVdZyZ5yrgmtlh2qYA4trgYhL1UtUu+ppNI2BBh/8mcq9f5CdAs+3eW95VwVVahL2djPSNgivySZHFxOmhTDI/B/oiOyI/r9UX6cdtYclm74PCdy3bR+VGPtdkXRVcNcVHjymAAI9SFFk+uaK2knCYp9jVkwg9vLV49Lzmivz3fTVdZxhb4Kp8WK4kMRY5C1xMrghk6OOl2uUTMAtElOvlRT8KSpvpWw+lnr2p92tU/zC4sMBHfd06Q6/yn+7VJM4EF74qj6dM8Hvq9kIf+0GVGOCnBVrl5cuXsqxW0kEWbKadrNN29uMNGQVkLdt7xpV44TVjZhkGlxKcmXmi08HbewS4cGvVKurtV6YsnEpZBSBT4p+lD3L82kZtbAaZpQtcSkAio2fq8z74trX1SHDhlPAnBfui2y9rN+vKTpwJVCSmtZn2+j6cIrSxRjMTvaaHY7DL2rpVfxe4aMS90CPBVVtY9S1ve3LZpLF1FVzZJ5eSQ7UY9I4p+nCiZpZucGGnr+32ihNH8vTYPiu4CIiWLxZcpaQZASpkWYCWZJf6kcRKDpTmj/Qr+g4Hl2LkjDytRIxsvgdwqbeYFqhbgAVgLHBV3qKOEvEW+2YHVyvmFhCl3Z6n4BZZvWBb4Frgkv/JHEDYSk51PAMQPKUzZNFu5c2REoB9/wLXAlf1SQi7W+8NrpFbOZ/gbGecXJSlUrzlTdDWqCpP4avp4Zh9zWXXV5Ef8YRvaGDnsxeU2/at1+lvz23h1phwge0JUVrgFiBoS3RyeZngIX+NWruiROrp82/FQy9jbm3okdnitXKjOvRbcEGej1VLhx8PwUWhpFSE9j1c9NdSHzjf3hoX6rIx9zp62r1yWvb36G7x1mzjGGlLljre8i9bH+wKwaUafOt81wj4rcds+XeJwJ91f8cAAABYSURBVALXJRbN2gJbM0SnZ8hc4wWu06fDcmDWCCxwzboyy67TR2CB6/RLuByYNQILXLOuzLLr9BFY4Dr9Ei4HZo3AAtesK7PsOn0EFrhOv4TLgVkjQHD9HyelA+cCJngHAAAAAElFTkSuQmCC;" vertex="1" parent="1">
          <mxGeometry x="842.91" y="121" width="19.09" height="19" as="geometry" />
        </mxCell>
        <mxCell id="FT5akpQHFOftVIUhpczF-14" value="" style="shape=image;verticalLabelPosition=bottom;labelBackgroundColor=#ffffff;verticalAlign=top;aspect=fixed;imageAspect=0;image=data:image/png,iVBORw0KGgoAAAANSUhEUgAAANcAAADWCAYAAABCIRcQAAAgAElEQVR4Ae1d27UctRI1NwLgG/MN/POKA5MBRMAjAkIAQgEcAYTAslMgBfBd+8D21CmXpC11Tbd6RlqrT+lRqpdqSz0zPXOevFplRWBFIDUCf/7554O8J6lSl7AVgRWBVwtclST4559/KqO3MXQPPh61UiG4GHBSGIf6vVz019KsBWJMGUvKZXsPSr9oC23ooXbuHjbPoqMnRiG43nrrrVf2evLkyaO2HbvFOv399NNPe2JZ5f31119fUW6J7hFL6qYu1Ufwca6lrFPerVP4q5YQXBCwriev1MRTgk1wzRZX1UeCazb7j7BHWW/wLHBVNpJPPvlEjWOT71bAhZMJCU16RHIfrbO52P8xLHBVwKXu6kqwbwVcRyf2DPqV9QbPAtcNg0s5XbCB2DcnSomj3hYqOmcAyBYbSjHy/SngOlNAe2w96uSq2VgbY8JYHlvHuG+rPqrginR4nbTzrNSDqNROAddZg9SyW028UnBtv3JbeEQSqj4q4DrC/tYaXmPcrmutPgQuH0TfvoZDR8hUE68WYI4p4Kr5aGNs69EcjpNGPOyDjxm3hTVdtTHaMQON7Iz6uKYtOgSuGQKx1QYELQqclTsDuFo2Wntt3c/zbfJ+9tlnrRx5GFdOLso8Oy3Fin5JAet9Q8MqxaJ8++23p72ePn3a/CzvCHB9+eWXr7777rtX33zzzRuxZd+zZ89e227XhIvPPsjiHK6Vb//8889SrijgQkyp54xU8RExVot8cmHBuGhQgOCduSiBPAJcuH1sFeUWE2ulyGrp4ngrXtCXGS/q3ZMip7lB1ahqkwwur2yBSw3xv3wKIBBjBRCRLLvxca0UWaoXLXBBpweX8lpO1b8HnwdXFFP4qZargmvm4I4kixrUiC8CBEFgqQII8JQWvldWZGvUt3e8Ihuu3efBZWNp66odVwWXasQRfHsnyxHg+u2339JCu3e80gzvEHQKcM18YjHWeydLNrjsTlqqQ2fWWuwdL67TnvQU4PIByVpgL7fWbuncO1kywYUTiYCyt4esk0JnVsmOF9aHV5aNW+WcElxbne6Z3wIVZWUnC+WWaCa4VFm//PJLyZzu/r3j1W1gwoRTgktN+C3x6d0F904WFRDKaZMpS4353vFS7crkOyW4MgOQJWvvZMkEBE4k3hbWqAJUNZ57x0u1K5PvdOCqLX72GF5rIEAordNy72TJBJeaUK0YqHLAlxUv2KQmcWZ+KL6qdimywHP1t+IzA6TIIrhaAchKlpYejh8BLurOoJnxUpNYWW+VR4mBapciCzwLXJN9WTLzVk5NAoVvgevyuzJKvBa4KsDCjoiEyirr5LpEUj0h1FNJ4btoL9dUu8oSHo+sk6sCsAWuS7Ksk2udXK/f0LikRVzLTJZYw+PedXJd4qGeEMqJpPJctJdrql1lCY9H1sm1Tq7HGVFoZW5GahKrwFH4Cm496lbtejSp0ljgWuCqpMdlaIFr3Rau28ILHlJrC1wLXIeA66effnr4aj6+nl+67Ffz/W0MPvzmw7b8mn9JTq3/+++/f6T/xYsXaQBb4FrgOgRcSuJ5QO3RnvX7XOprm8wYKbuMapciCzzrNZf4mss/SmTbI+DiScUE8m32j1DKyvxAWvERPEpRk3jE99KcTLsUWeBZ4BLBVQsofgmrtKgj/QTHyFw7Z51cfbdyKuhruWDHFrgSwKXs6kx6AEcBj8JDmSW6Tq4FrtRdH7uPUhRAqLc5iqwSAK7Zv8C1wLXAVTk9e8DH0450gWuB67Tg4psaysnFhO8Bywiv1bPAtcB1WnDx9lMBF4Fik7/Wx7EtlODiJkB7R6jiI3iUor5xsMV3PzfTLkUWeNYbGpVbMjVZlMTzi93TjgCpzCe41GSo8Sk+qvFa4KokHRZWfeNASYJMHtWuzGTJljUKppE4qv/3OdPHBa4FLvnLkr2JV7tNi2T1go38pDXQZf4LIdiulAWuBa6rgauWgFs/kCagSGvAwtg6uS6roYL+MqNeW6+5KpuIuhNHp41P6kxZXvaW9jq5LgBZ4KqAAUmGACllb0BYcPXeFm4BD+aWTjH0W7tqccuMl5rEW/2282u+cUy1i/wtuk6uCliPSDwliW3SjNYJuCN8VJN41LdoXgsIGFftUmSBZ4ErAVzK66TM268oeUb7FrguUFngqoABCYYvE9ZuuxhK5YQoJZ6XPyLLy+ixqwdIPKFKc0o+0h7SER8511OsUcmea/V7G6L2AlcDXPiH2krJTJY9ZbXA0pucR4ALa9Rr51Z+JSdOBy4YvOelfocpExD4mn/LR/AoRbHr/fffL+rDqUBb3nvvvWYS7w0unNjPnz9/sNHaSpuvRZXYQ7cCYkUWeK7+mqt0+6Ma2MtHfaSl+UoSq4lX0jHSr9jF12+Rj+wDpazaaaf6SFm15FNlWRtHYnStOacD17UCUZPLxavxbEkWRX5NN8ZKMrbY5XXOKKvkt7f9iPYClxh1u4i2zumjiRfJosxeGslS7cLcaL7tU2UpdmfKUvQdwbPAlRT1WZMl065ZZSUtYbqYw8GF+3dcMOTMJTPxMuOQadessjLjlSnLg4uvVUn5elPVOfyGhvqWt2KIvZVR+Ed5rJ7RxLMyRu3gvEjWqF2UaekRsrxPvm3ty6hnyvfgIpg8Ve0eAtctnFzKUxVIzr3LEYBQfMy0S9F3BM9h4PJHIz6jyCqZuw9lkUY2YiwzWWq6qF/hAW+mXbPKUmPB2Hlq59u65+ttHwYufzTCkFkLA04a2ZmReDX5kU70teZk2EXds8qifbNRgosHCanPfdXuodtCKHv69Okr3Fr1XFhsy482L9u/pU4dlrIOuay/8847zU/jwdsqAMtXX331yK/IfvC0gAVd0OkX07cVu46QhZhGvts+2O4vO67UMZ98ts6+UYqc9rGO2q2c4PgwuCKlo32lHWJEXqYsLJxSwNey9R5kRTGI1iPqi+YqfZmyvL6SbCUnwDMFuLxTe7RLgbO67wEQmT7a2N1yfRhcuHVBYJh8pLccrJJv+H2J7Fu5ljzc0pTsYX8mIDJl0b5bpsCDLbX1fHRykfGWg9PjW2biURZjbBfI1gFo2lja2PijMi1Z0ElZJUq7rA1R3coq2VXScWv9iE8r9uB5BC4G9d6Dx2SIEi8Kqk08zvWUgGCMS5QnV20NIrsieYpdmbK8z7fajnIgin8RXLXFvcWgwV/vMxLdllJQCYhaXLwsK9fW7clVkpcJiF5ZPkZR3Ep2n72fviIPSrlg1zIE19mDkGV/67RhgBVAtGRxUXja+CS2PvUCws719UxZXvattrlWLVoEF1F6qwHyftlkZl09bQgIL9O2R5KYdlg5qNdkEfBY+Gy7rD227u279XYLVBwPwYVFubcLJ4v3GR/8KgV8fq5vP3v27BV+ggD/HMFS1Hlh7IMPPmi+CfHhhx++nlOShX7wtRIddipF8dH7fEttmx9KvMDzGlx2x1Mn3wNfLS61MR8bACdK9GueAIpsFVzWnx6/7bx7q78G1705vre/JXBFgNuzbwRce8furPoWuHZauQWunQI9kZoFrp0WY4Frp0BPpGaBa6fFWODaKdATqVng2mkxFrh2CvREaha4dlqMBa6dAj2RmgWunRZjgWunQE+kZoFrp8VY4Nop0BOpCcH1+eefv/4aNR4BGr2O+AwF//Bg1N7aPMQEF586sLx//PFHc0lVcP3www8PT3GAf+T65ZdfXs/LfEKj6aDIgA+guUa9eYbY27ijrv6DC9G8VLYQXKMfYvonAtDeu/gfGRnxxfsRybA8AEGrqOBSZLV08QkKJGNku+07YgPEb17a+Nm6tc3XI76ZfyjpDXBhYbxTo20EY+9CcI3aPDJPAYQKLpw8BMdI7OzcWcGV+c/vTgUuLCgSLNolehKP80cSZMscgov6SVXbye9pNJ88AESrqOBSgNrSxfFZwRX98zvEsnYxJxlz0lOCK0qmkT4u9F6U4BqxdXSOAggVXHiaHQUnkD2FlPjZOajPCq7Mkyvzx2mVGPfwvHFbiMmjScZ53FXQ3rtw4awNtOtaNBNciiw1prOBi5tF5gZ46pNLTVLykTKR1UTI4stcOPoA6v2yYwog1JNLkaXGaiZwEViwfWSNSvE/NbhsEql1BgJ07zKycKpfJT4FEHuByybxTOCyeRC95irFNupnfmHs7sBlA2KDukc9ApddDGubr4NP5bVzZwKXjfGs4IrWyMazp34tcNlNysa0p36V11w2OD3GbOVFQPChIpIq41I+hIWv9wAufFDOnyMoUf9heilBM8HFn08o2dTT/+LFi60p+Gj+TYELnpUW9JHXYgMLYzeKUv0ewKWcgnhiQilbwTVyd1FaO9uffQreHLiUxVV58PmVDX6pfk/gYmKTIiasA4BK2QIu6iqtxZZ+2JW5Od80uLYG6vnz5wtc/6FFObn2ANcW8LTmZv4rYoTt5sDlAeXbtZ3V866T6xIt+8On9vRAndce4KJu0hZgesbXyXVZ76vXcLunLM493RbW4qH+qvCW28Ka/q1jC1wNSPnTp8FeHV7guoTnHm4LAa7MknJbWDuiM43dW1YJXN7frJMLcr2sLZtFJiAyZa2T68mT6i0RE4zUHsm2b29AZOqLwGV9o88eEJENVlYkA7LQr8jy8ksAxFvjtDGi0Ke+fd6SBfn+NVfJrpnB5WO7pT10cpWSI1rALcYdPdcCIvKNfQogemQxKUkRB1tX42LfhKCtnqqvkxRZKlAXuBonFz8ZR9Lgw1ZQXmyDZhbsjFhAXKyD8kI/kiAaZx95SdkPygtjqNf+KYLdYPAkB+eWaBQvGyfUcf31118PQKqB6ffff39DH222FE+rRDrsOvGJlpLd7KcsK8+uPfr9ExqltT8CXPS5RGE/7IK/NoZso49XbW2sz0MnF3Y/GBIpQV/Ub5WO1rnr2sRmnfR///vfw60Q26C+zj7fb+VzjH2ktX4r19exSD42jBOpjUvUx3EkCOzxtlAnx8BHnVYe66Dg4bwaBV9UKJ9jlM12RI8AV2SH78PXlRgDu97sI7Xzav5uApdVskedDu9FEUwmKuvU7dvsL1HselmF4CrpYj9241ZRZZXA1ZIfjc8KLtWuyKeorwtcNqFgyN6FSXNGegS4Zv35ATWJM9dZyVXFLmCgdlpZPV3gss4eAS4LbmvLGeo94GotnnLaIFbr5Lq8422TvlRXwIVcs6W2VqcC1xlAVLKxB1x28aJ6FriQGABgyWbbz9vCWjJFtkZ9ahJb/VvrkR2+T7XLzyu1i+BqnRI8uRDsjICXDLT9WwN85PxMcOF2r7Q+6OcYAWFj6Ou94PLzR9pqEmeul2KnapciCzwhuLg4NecILlVRBl/NntnHMsGVCQjlFERsFaCqa9xKYiX/etdbsa1lF3UqssBTBBd3wBI9Alx4mx32lN5uL9k6Q38muOzJVfKNgGjdVQA0JRm234LLy/TtVvIpSWx1Z9RbNmFcsQtxVUsILiQCPowlRZ0X+/ChYimoth+7bNZFG85Iv/76a2lN7Nfp8X0yxs7WEfuPP/64uj5Yp9aHulgn8CjxbMmSnPuPqZXEABOSGHYx3xQbazyKfS27Uk4uxRALoBo/DcqgNT23MoYPm1uxQhKduShJDIDtXRS7sDZqCU+u0mQAileJx/e3EqVnvAToUr+3ZYZ2y1bs1K2Y2Kc9rDzWQVm/ts8jerKTOMvHbLtkcI0EEU63EqVnPCuIM8spgYu3SogXeNQyum6q/BE+JYnv7uQaCWQPeFq8I/rPNqcELhubHnDN6L8CLvi7d8m2Sz65So76ndG3bVJsrcMGL79k11n77wFc/v9z2bzgCc2Ta8/1ng5crSS2gdtab+m6hfF7AFd2Emete7ZdwydXtKOgjxcd5k60FViY72WzDYpCSt0RJY+lrFsZ7COlLLR9H+dxLKKc36Izg4t+R9T31fxs/VY8c8bKsDG1/azb8ahOvhqdBlw1I+1YBqgow8pt1bnYEV9tzPKrfHZOra7ImxlcNd+isZK//DdPXNcSjWRes29qcDGYpAgEd6FSAHv6o8BaXRxnHyn7LS2Nsd9TzkU/x9inUHXOrOCK/KZPpK04kK91ciEn+JrLyoxssONb69OAC08J4PMWe/E/3tu+HvC0eK3cqA79P/74oxTjr7766sH20n+URz8SPdIz0gd9SpkVXKV42fipPuIfHuARLjxSFV14KgX9VvZIzO0cJfbTgEs1pAWY7HHYFRXumhxTkjjTNuizxdvDMcUuL4tzr0mPsCsz/kps1JxWZIFn+A0N5WjPDI4qqwQuHxA8QqTKzOBTAAHAHZHEPjZR+wi7GPeMlxaRT75vGnCphjBAe1HYVToVbDCVZMm0WQEX7FPsUmVZf7fWvV1Rwm+1y69bZvwV/9WcVmSBp+vkss6rhmQGSJEFu5Tik0WRvYVHTTzaxeQltbprsrhGnioxqfHQLmuHr9fsqsn2Y7Tdy9/S9jqitprT0dyorwtcVoD6duqWgIzMhV21woWzt4VRAke6Vb5orpp4LbtggyqLvtbioY7tCS7YBNujOI72KX5OAy7VkNFgjM7jydVKLLyTNKpjZJ4KCNpFIJNanV5Wy1clsVo8JXBZ+7xdLZmtcevz1npLF8bVnFZkgWf45FIN2RqU3vkEVysApWTp1Qd+m2Cl+WriKXapsjJBF9nl/Vbtaq0Nx738UmyVfsqsUTWnazLsmAwuv1AwJNN5JUAKD+zytlqHWY+SRZFPnl7f1cSjXTX5lKX4SX+3UtpF/yNKu7bq4vxIx2gfZdboYeDyRuFDZARztgt2KQUfePbajlu2aM4777zTvMXEPKWU7MJrMerm787zJwD2oB999FGaj0ocwEN/M6iicxpwKcbeCw8Wv7Wjgier4OmFlr4jxjN9zIpVj5wFrp5o7cS7wPXvL9sucD1OOPk11+Npq2UjsMC1wGXzgfUFLkZiA13gWuCK0meBK4pKZ98C1wJXlDILXFFUOvsWuBa4opRZ4Iqi0tm3wLXAFaXMAlcUlc6+Ba4FrihlFriiqHT2bQHXyFMWWz/n4tMfpFmfiSEOShnxWZG7lUd9GF3V8wa44Lj9evRZ61joHtsjfvVr6wq48BRHZE+kF3ylfozhCQ379Xg+oeH7Pvjgg+KHzQTWhx9++PDPHuzcqA6+Fgjffffd0Efvd+kpGuSeBV70NX/Excbm559/lnLd2xC1nz592vQRMVDLG+DCRAhA8LkAts3+GSntLNGazdEcLIBSsNiYX7uou8SD8cgG9tt50FcqTE5Qxa6aLKtDkWVtrNXxJESt0Acvw8aCdXwjXingVy6vM2or+sBTBFck9N76jkg8JcajdjEhrY5RWVZGb70FLiavIjdTltVnY2Xr4FHLI3BxxyDCvTL2z0xhM4NhqWIz/eW8zJOLdtEOtklL/RwHZd0CgmvGBbdt8HFeiVpZlBFRL4sx8nLZT39sm7wqICgD87wctrNOLtqm0Cg+Ud8jcJFBUXAPPKOJd+3YZNqVKUv1WwWXIi9TlqIPPGoJwcVdQVV2q3xIPHsSlIIKvj1jkAmITFk2BrUcGgFESd6ILGvnSL2UB74/BNeIwluZYxfxWom3NVaZdmXf+iq+ZQIiU1Zku80HjnsQldrD4IqUUvkZqGJ/ZhJnxiTTLnwJUynQmeED4p4JiExZqn9KvMAzBC4lMVVDZ+bLTOJMP+1pE922sk8BhJVVSxorC+u/JQcyAZEpS12jWpzs2BC4YAQ+cONXz0Fnv5AcuGjz22+/3dyJwa8Um3jqAo3yIan5wS8/PAZ9/vz5w4fBtq588BvJsnJZ/+KLLx6tsY8n4lr70Nr6C1mUS2rtRx8+yLZzSnUVXBn5yfxRcgI8w+BSnVIN2ZtPAQR4lKLIKiVHT79yWnie3nbJHiR8q1hAeL0luUp/TdbReci7hCg2m8AFwRTO+qwUzlvbFEDMBi6fiLWk87y2PTIPwPEx/Pvvvx/FlOCifFLotvWRtrXf1lVw2bUfqVvfHwIh/NkELkH+tCx4reEX3C4a6rODy9urtOkzqTIHPL0nlyq3xkcbSSNeFVxHJOIwuNRPxo9wStEJcEWLZfvOAi4kHy/Yb+vWn1K9lrycg/+n1SrgoX7Oi6jVZ+sRb6vvJsE1s1OtJMA4bwtri3sWcLUSkOM1X8lTorwtZGxxa+ULbwtLMti/xQ7KIJ05D4dPrpmdihbeJwLBxUWKaAlcXr4iK5J/rT4mL2mGHg8uH0+0VXBl2EMZM+fhTYILC+0B4JNBAUQJXCOymAxHUwKOVLVngcuvert9FXC1ErttVg5HzY57BRfA1AsszFHAhTc9VLBm8c382j8dXFFCo4/9tm4hxP4MauWW6pngUt4cyUomVQ4BRKrOK/Ep4IpuC6E/wwYrg3XQ1v9j4/oreUXeLJoOLhgGR1jg/Pfff/9w+TravMizlUZvGVt7aNcIuCI5kIevrePe/+gLuzhsQExRV762Dh7F7hcvXjB0b1DG5eXLlw96rTzaZPtG6lYO66DKu5gwWMkr5g78oU9vONvRcRVwWf2lnfBa/Qg4Sy1AI+Ci3LPQe/CxtsZ2nZR8s7lj547Wbw5c2BWVgG9NPEXH6KJkzVN8VB/c9TYd4T91eupti9oKuJA7meVq4GIAFKcyedTdR0k88Jy5eB/5WsXGGw+09hauLef5NvtnotbnqI7YnAZcDGzkyDX71AD5xItsujVw3aKPzLMWjXz3fWrutHRx/GonFxV4B67dVgM0O7hwGqgnQolvdh+ZI3tQJe/U3FHtXeCq/N7gESdXCSh2QRUe8C9wXaK2wFVJdCU44FF3n3tIvHvw8QKfek3JH+aOunnVNe7wZUnFqUweBqjl+KyJFy1s1NfyD+NH+EhbSRU79+BRckzNHdXedVtYOS2RnGcue4JrNjD5dVvgqiS6EhzwqLvPnonnF7rWhl18y5zU+66Cfm8fo8efvO1oqx+X1OJ0hrF1clUArSZxxkJz51eeU7R2cV5kw97g4pclCShuDqTsVzfAyKcz9S1wTQIuJg3B5ROSiQmqfvALPjvP1infApU2jFIPLqvP1he4KkmHQKkBskHdo67atfeuHiVsdOoQXLVY1QBhZWb6CLmUTep9Um8L1TWCfKvX69uzPWLHOrkqm0gtia+1sNDJU4XUAg19ql01cEEOrtFnCyP/rwGuSM9Z+ha4dgRXacdnP2gNEAQZeDinlmhbT0Ev2+tEmxd4t4DLy6buUj/H96QlW0r9C1w7gktJBACCp4qlABbbPScX54BSBin6Mk8u/01k6uSmQFq6LUSS8lJidSQP7SwBC7YtcB0ArtqC1N6EYHKWwOXlZp6CSiJvObkU+WfjWeA6AFy1JCEg7K7v68q7hQAaZGEuL3tiWaB6UNbsq40tcD2OzgLXTuDC1+RxO2R/1gB1fP2cfaDgaV34WQGlKD8/0CPL2unr8OPZs2fFt/4JZtDSbaH3ifHwuo5qc/28naX2AtdO4FJ3dfDNWHiiWpCM1lVwjcq/9jx1fRa4FrikXFng+vcfvgO4alngWuCScmWBa4FLvp9XkgU8WWXdFl6Sc90WVnZ0HI2zBki1a4Grb9tQ4qW+1lHXSJW3N58auXVbWNlE1sl1SaMFrsvJe4lKvbbAtcBVz5D/Rhe4Frjk21UlWdbJdcGdEi/19mzdFlZ2dARxxgDhSQTa1XrqQEmWa4HLPnHhE/KMn3PV/PH+qbmD9YvmztCHLYf5RXrZhi61q98WXlTNVcsEl/I8YGZSZII+c1XsO6I1wNXGbJwybcuUVQOU1bMLuFRjrGG9dejo0ZMJLkWWTZqeOhLRJiPqmU+yq3GO4uvjbcHV8pE+Wf9sH+bPVLyvim27gEsxJItHDYICCPWEUGQxcVpJp4yrdmXFVJXTAy7FT1XvrHy7gEtN+MwgtXQqgLBJXJOnyFKSiTwEInd1tjGOurUrM2aqLMYClHXM7QEXfaKP9M1SyLTyVfuuwUdfe+y5Crh6DLhGIBSZCiDUJFZkETiWMsFsX6lukxC3hUfHONKPH6jp8ankK/uVdZyZ5yrgmtlh2qYA4trgYhL1UtUu+ppNI2BBh/8mcq9f5CdAs+3eW95VwVVahL2djPSNgivySZHFxOmhTDI/B/oiOyI/r9UX6cdtYclm74PCdy3bR+VGPtdkXRVcNcVHjymAAI9SFFk+uaK2knCYp9jVkwg9vLV49Lzmivz3fTVdZxhb4Kp8WK4kMRY5C1xMrghk6OOl2uUTMAtElOvlRT8KSpvpWw+lnr2p92tU/zC4sMBHfd06Q6/yn+7VJM4EF74qj6dM8Hvq9kIf+0GVGOCnBVrl5cuXsqxW0kEWbKadrNN29uMNGQVkLdt7xpV44TVjZhkGlxKcmXmi08HbewS4cGvVKurtV6YsnEpZBSBT4p+lD3L82kZtbAaZpQtcSkAio2fq8z74trX1SHDhlPAnBfui2y9rN+vKTpwJVCSmtZn2+j6cIrSxRjMTvaaHY7DL2rpVfxe4aMS90CPBVVtY9S1ve3LZpLF1FVzZJ5eSQ7UY9I4p+nCiZpZucGGnr+32ihNH8vTYPiu4CIiWLxZcpaQZASpkWYCWZJf6kcRKDpTmj/Qr+g4Hl2LkjDytRIxsvgdwqbeYFqhbgAVgLHBV3qKOEvEW+2YHVyvmFhCl3Z6n4BZZvWBb4Frgkv/JHEDYSk51PAMQPKUzZNFu5c2REoB9/wLXAlf1SQi7W+8NrpFbOZ/gbGecXJSlUrzlTdDWqCpP4avp4Zh9zWXXV5Ef8YRvaGDnsxeU2/at1+lvz23h1phwge0JUVrgFiBoS3RyeZngIX+NWruiROrp82/FQy9jbm3okdnitXKjOvRbcEGej1VLhx8PwUWhpFSE9j1c9NdSHzjf3hoX6rIx9zp62r1yWvb36G7x1mzjGGlLljre8i9bH+wKwaUafOt81wj4rcds+XeJwJ91f8cAAABYSURBVALXJRbN2gJbM0SnZ8hc4wWu06fDcmDWCCxwzboyy67TR2CB6/RLuByYNQILXLOuzLLr9BFY4Dr9Ei4HZo3AAtesK7PsOn0EFrhOv4TLgVkjQHD9HyelA+cCJngHAAAAAElFTkSuQmCC;" vertex="1" parent="1">
          <mxGeometry x="842.91" y="151" width="19.09" height="19" as="geometry" />
        </mxCell>
        <mxCell id="FT5akpQHFOftVIUhpczF-15" value="" style="shape=image;verticalLabelPosition=bottom;labelBackgroundColor=#ffffff;verticalAlign=top;aspect=fixed;imageAspect=0;image=data:image/png,iVBORw0KGgoAAAANSUhEUgAAANcAAADWCAYAAABCIRcQAAAgAElEQVR4Ae1d27UctRI1NwLgG/MN/POKA5MBRMAjAkIAQgEcAYTAslMgBfBd+8D21CmXpC11Tbd6RlqrT+lRqpdqSz0zPXOevFplRWBFIDUCf/7554O8J6lSl7AVgRWBVwtclST4559/KqO3MXQPPh61UiG4GHBSGIf6vVz019KsBWJMGUvKZXsPSr9oC23ooXbuHjbPoqMnRiG43nrrrVf2evLkyaO2HbvFOv399NNPe2JZ5f31119fUW6J7hFL6qYu1Ufwca6lrFPerVP4q5YQXBCwriev1MRTgk1wzRZX1UeCazb7j7BHWW/wLHBVNpJPPvlEjWOT71bAhZMJCU16RHIfrbO52P8xLHBVwKXu6kqwbwVcRyf2DPqV9QbPAtcNg0s5XbCB2DcnSomj3hYqOmcAyBYbSjHy/SngOlNAe2w96uSq2VgbY8JYHlvHuG+rPqrginR4nbTzrNSDqNROAddZg9SyW028UnBtv3JbeEQSqj4q4DrC/tYaXmPcrmutPgQuH0TfvoZDR8hUE68WYI4p4Kr5aGNs69EcjpNGPOyDjxm3hTVdtTHaMQON7Iz6uKYtOgSuGQKx1QYELQqclTsDuFo2Wntt3c/zbfJ+9tlnrRx5GFdOLso8Oy3Fin5JAet9Q8MqxaJ8++23p72ePn3a/CzvCHB9+eWXr7777rtX33zzzRuxZd+zZ89e227XhIvPPsjiHK6Vb//8889SrijgQkyp54xU8RExVot8cmHBuGhQgOCduSiBPAJcuH1sFeUWE2ulyGrp4ngrXtCXGS/q3ZMip7lB1ahqkwwur2yBSw3xv3wKIBBjBRCRLLvxca0UWaoXLXBBpweX8lpO1b8HnwdXFFP4qZargmvm4I4kixrUiC8CBEFgqQII8JQWvldWZGvUt3e8Ihuu3efBZWNp66odVwWXasQRfHsnyxHg+u2339JCu3e80gzvEHQKcM18YjHWeydLNrjsTlqqQ2fWWuwdL67TnvQU4PIByVpgL7fWbuncO1kywYUTiYCyt4esk0JnVsmOF9aHV5aNW+WcElxbne6Z3wIVZWUnC+WWaCa4VFm//PJLyZzu/r3j1W1gwoRTgktN+C3x6d0F904WFRDKaZMpS4353vFS7crkOyW4MgOQJWvvZMkEBE4k3hbWqAJUNZ57x0u1K5PvdOCqLX72GF5rIEAordNy72TJBJeaUK0YqHLAlxUv2KQmcWZ+KL6qdimywHP1t+IzA6TIIrhaAchKlpYejh8BLurOoJnxUpNYWW+VR4mBapciCzwLXJN9WTLzVk5NAoVvgevyuzJKvBa4KsDCjoiEyirr5LpEUj0h1FNJ4btoL9dUu8oSHo+sk6sCsAWuS7Ksk2udXK/f0LikRVzLTJZYw+PedXJd4qGeEMqJpPJctJdrql1lCY9H1sm1Tq7HGVFoZW5GahKrwFH4Cm496lbtejSp0ljgWuCqpMdlaIFr3Rau28ILHlJrC1wLXIeA66effnr4aj6+nl+67Ffz/W0MPvzmw7b8mn9JTq3/+++/f6T/xYsXaQBb4FrgOgRcSuJ5QO3RnvX7XOprm8wYKbuMapciCzzrNZf4mss/SmTbI+DiScUE8m32j1DKyvxAWvERPEpRk3jE99KcTLsUWeBZ4BLBVQsofgmrtKgj/QTHyFw7Z51cfbdyKuhruWDHFrgSwKXs6kx6AEcBj8JDmSW6Tq4FrtRdH7uPUhRAqLc5iqwSAK7Zv8C1wLXAVTk9e8DH0450gWuB67Tg4psaysnFhO8Bywiv1bPAtcB1WnDx9lMBF4Fik7/Wx7EtlODiJkB7R6jiI3iUor5xsMV3PzfTLkUWeNYbGpVbMjVZlMTzi93TjgCpzCe41GSo8Sk+qvFa4KokHRZWfeNASYJMHtWuzGTJljUKppE4qv/3OdPHBa4FLvnLkr2JV7tNi2T1go38pDXQZf4LIdiulAWuBa6rgauWgFs/kCagSGvAwtg6uS6roYL+MqNeW6+5KpuIuhNHp41P6kxZXvaW9jq5LgBZ4KqAAUmGACllb0BYcPXeFm4BD+aWTjH0W7tqccuMl5rEW/2282u+cUy1i/wtuk6uCliPSDwliW3SjNYJuCN8VJN41LdoXgsIGFftUmSBZ4ErAVzK66TM268oeUb7FrguUFngqoABCYYvE9ZuuxhK5YQoJZ6XPyLLy+ixqwdIPKFKc0o+0h7SER8511OsUcmea/V7G6L2AlcDXPiH2krJTJY9ZbXA0pucR4ALa9Rr51Z+JSdOBy4YvOelfocpExD4mn/LR/AoRbHr/fffL+rDqUBb3nvvvWYS7w0unNjPnz9/sNHaSpuvRZXYQ7cCYkUWeK7+mqt0+6Ma2MtHfaSl+UoSq4lX0jHSr9jF12+Rj+wDpazaaaf6SFm15FNlWRtHYnStOacD17UCUZPLxavxbEkWRX5NN8ZKMrbY5XXOKKvkt7f9iPYClxh1u4i2zumjiRfJosxeGslS7cLcaL7tU2UpdmfKUvQdwbPAlRT1WZMl065ZZSUtYbqYw8GF+3dcMOTMJTPxMuOQadessjLjlSnLg4uvVUn5elPVOfyGhvqWt2KIvZVR+Ed5rJ7RxLMyRu3gvEjWqF2UaekRsrxPvm3ty6hnyvfgIpg8Ve0eAtctnFzKUxVIzr3LEYBQfMy0S9F3BM9h4PJHIz6jyCqZuw9lkUY2YiwzWWq6qF/hAW+mXbPKUmPB2Hlq59u65+ttHwYufzTCkFkLA04a2ZmReDX5kU70teZk2EXds8qifbNRgosHCanPfdXuodtCKHv69Okr3Fr1XFhsy482L9u/pU4dlrIOuay/8847zU/jwdsqAMtXX331yK/IfvC0gAVd0OkX07cVu46QhZhGvts+2O4vO67UMZ98ts6+UYqc9rGO2q2c4PgwuCKlo32lHWJEXqYsLJxSwNey9R5kRTGI1iPqi+YqfZmyvL6SbCUnwDMFuLxTe7RLgbO67wEQmT7a2N1yfRhcuHVBYJh8pLccrJJv+H2J7Fu5ljzc0pTsYX8mIDJl0b5bpsCDLbX1fHRykfGWg9PjW2biURZjbBfI1gFo2lja2PijMi1Z0ElZJUq7rA1R3coq2VXScWv9iE8r9uB5BC4G9d6Dx2SIEi8Kqk08zvWUgGCMS5QnV20NIrsieYpdmbK8z7fajnIgin8RXLXFvcWgwV/vMxLdllJQCYhaXLwsK9fW7clVkpcJiF5ZPkZR3Ep2n72fviIPSrlg1zIE19mDkGV/67RhgBVAtGRxUXja+CS2PvUCws719UxZXvattrlWLVoEF1F6qwHyftlkZl09bQgIL9O2R5KYdlg5qNdkEfBY+Gy7rD227u279XYLVBwPwYVFubcLJ4v3GR/8KgV8fq5vP3v27BV+ggD/HMFS1Hlh7IMPPmi+CfHhhx++nlOShX7wtRIddipF8dH7fEttmx9KvMDzGlx2x1Mn3wNfLS61MR8bACdK9GueAIpsFVzWnx6/7bx7q78G1705vre/JXBFgNuzbwRce8furPoWuHZauQWunQI9kZoFrp0WY4Frp0BPpGaBa6fFWODaKdATqVng2mkxFrh2CvREaha4dlqMBa6dAj2RmgWunRZjgWunQE+kZoFrp8VY4Nop0BOpCcH1+eefv/4aNR4BGr2O+AwF//Bg1N7aPMQEF586sLx//PFHc0lVcP3www8PT3GAf+T65ZdfXs/LfEKj6aDIgA+guUa9eYbY27ijrv6DC9G8VLYQXKMfYvonAtDeu/gfGRnxxfsRybA8AEGrqOBSZLV08QkKJGNku+07YgPEb17a+Nm6tc3XI76ZfyjpDXBhYbxTo20EY+9CcI3aPDJPAYQKLpw8BMdI7OzcWcGV+c/vTgUuLCgSLNolehKP80cSZMscgov6SVXbye9pNJ88AESrqOBSgNrSxfFZwRX98zvEsnYxJxlz0lOCK0qmkT4u9F6U4BqxdXSOAggVXHiaHQUnkD2FlPjZOajPCq7Mkyvzx2mVGPfwvHFbiMmjScZ53FXQ3rtw4awNtOtaNBNciiw1prOBi5tF5gZ46pNLTVLykTKR1UTI4stcOPoA6v2yYwog1JNLkaXGaiZwEViwfWSNSvE/NbhsEql1BgJ07zKycKpfJT4FEHuByybxTOCyeRC95irFNupnfmHs7sBlA2KDukc9ApddDGubr4NP5bVzZwKXjfGs4IrWyMazp34tcNlNysa0p36V11w2OD3GbOVFQPChIpIq41I+hIWv9wAufFDOnyMoUf9heilBM8HFn08o2dTT/+LFi60p+Gj+TYELnpUW9JHXYgMLYzeKUv0ewKWcgnhiQilbwTVyd1FaO9uffQreHLiUxVV58PmVDX6pfk/gYmKTIiasA4BK2QIu6iqtxZZ+2JW5Od80uLYG6vnz5wtc/6FFObn2ANcW8LTmZv4rYoTt5sDlAeXbtZ3V866T6xIt+8On9vRAndce4KJu0hZgesbXyXVZ76vXcLunLM493RbW4qH+qvCW28Ka/q1jC1wNSPnTp8FeHV7guoTnHm4LAa7MknJbWDuiM43dW1YJXN7frJMLcr2sLZtFJiAyZa2T68mT6i0RE4zUHsm2b29AZOqLwGV9o88eEJENVlYkA7LQr8jy8ksAxFvjtDGi0Ke+fd6SBfn+NVfJrpnB5WO7pT10cpWSI1rALcYdPdcCIvKNfQogemQxKUkRB1tX42LfhKCtnqqvkxRZKlAXuBonFz8ZR9Lgw1ZQXmyDZhbsjFhAXKyD8kI/kiAaZx95SdkPygtjqNf+KYLdYPAkB+eWaBQvGyfUcf31118PQKqB6ffff39DH222FE+rRDrsOvGJlpLd7KcsK8+uPfr9ExqltT8CXPS5RGE/7IK/NoZso49XbW2sz0MnF3Y/GBIpQV/Ub5WO1rnr2sRmnfR///vfw60Q26C+zj7fb+VzjH2ktX4r19exSD42jBOpjUvUx3EkCOzxtlAnx8BHnVYe66Dg4bwaBV9UKJ9jlM12RI8AV2SH78PXlRgDu97sI7Xzav5uApdVskedDu9FEUwmKuvU7dvsL1HselmF4CrpYj9241ZRZZXA1ZIfjc8KLtWuyKeorwtcNqFgyN6FSXNGegS4Zv35ATWJM9dZyVXFLmCgdlpZPV3gss4eAS4LbmvLGeo94GotnnLaIFbr5Lq8422TvlRXwIVcs6W2VqcC1xlAVLKxB1x28aJ6FriQGABgyWbbz9vCWjJFtkZ9ahJb/VvrkR2+T7XLzyu1i+BqnRI8uRDsjICXDLT9WwN85PxMcOF2r7Q+6OcYAWFj6Ou94PLzR9pqEmeul2KnapciCzwhuLg4NecILlVRBl/NntnHMsGVCQjlFERsFaCqa9xKYiX/etdbsa1lF3UqssBTBBd3wBI9Alx4mx32lN5uL9k6Q38muOzJVfKNgGjdVQA0JRm234LLy/TtVvIpSWx1Z9RbNmFcsQtxVUsILiQCPowlRZ0X+/ChYimoth+7bNZFG85Iv/76a2lN7Nfp8X0yxs7WEfuPP/64uj5Yp9aHulgn8CjxbMmSnPuPqZXEABOSGHYx3xQbazyKfS27Uk4uxRALoBo/DcqgNT23MoYPm1uxQhKduShJDIDtXRS7sDZqCU+u0mQAileJx/e3EqVnvAToUr+3ZYZ2y1bs1K2Y2Kc9rDzWQVm/ts8jerKTOMvHbLtkcI0EEU63EqVnPCuIM8spgYu3SogXeNQyum6q/BE+JYnv7uQaCWQPeFq8I/rPNqcELhubHnDN6L8CLvi7d8m2Sz65So76ndG3bVJsrcMGL79k11n77wFc/v9z2bzgCc2Ta8/1ng5crSS2gdtab+m6hfF7AFd2Emete7ZdwydXtKOgjxcd5k60FViY72WzDYpCSt0RJY+lrFsZ7COlLLR9H+dxLKKc36Izg4t+R9T31fxs/VY8c8bKsDG1/azb8ahOvhqdBlw1I+1YBqgow8pt1bnYEV9tzPKrfHZOra7ImxlcNd+isZK//DdPXNcSjWRes29qcDGYpAgEd6FSAHv6o8BaXRxnHyn7LS2Nsd9TzkU/x9inUHXOrOCK/KZPpK04kK91ciEn+JrLyoxssONb69OAC08J4PMWe/E/3tu+HvC0eK3cqA79P/74oxTjr7766sH20n+URz8SPdIz0gd9SpkVXKV42fipPuIfHuARLjxSFV14KgX9VvZIzO0cJfbTgEs1pAWY7HHYFRXumhxTkjjTNuizxdvDMcUuL4tzr0mPsCsz/kps1JxWZIFn+A0N5WjPDI4qqwQuHxA8QqTKzOBTAAHAHZHEPjZR+wi7GPeMlxaRT75vGnCphjBAe1HYVToVbDCVZMm0WQEX7FPsUmVZf7fWvV1Rwm+1y69bZvwV/9WcVmSBp+vkss6rhmQGSJEFu5Tik0WRvYVHTTzaxeQltbprsrhGnioxqfHQLmuHr9fsqsn2Y7Tdy9/S9jqitprT0dyorwtcVoD6duqWgIzMhV21woWzt4VRAke6Vb5orpp4LbtggyqLvtbioY7tCS7YBNujOI72KX5OAy7VkNFgjM7jydVKLLyTNKpjZJ4KCNpFIJNanV5Wy1clsVo8JXBZ+7xdLZmtcevz1npLF8bVnFZkgWf45FIN2RqU3vkEVysApWTp1Qd+m2Cl+WriKXapsjJBF9nl/Vbtaq0Nx738UmyVfsqsUTWnazLsmAwuv1AwJNN5JUAKD+zytlqHWY+SRZFPnl7f1cSjXTX5lKX4SX+3UtpF/yNKu7bq4vxIx2gfZdboYeDyRuFDZARztgt2KQUfePbajlu2aM4777zTvMXEPKWU7MJrMerm787zJwD2oB999FGaj0ocwEN/M6iicxpwKcbeCw8Wv7Wjgier4OmFlr4jxjN9zIpVj5wFrp5o7cS7wPXvL9sucD1OOPk11+Npq2UjsMC1wGXzgfUFLkZiA13gWuCK0meBK4pKZ98C1wJXlDILXFFUOvsWuBa4opRZ4Iqi0tm3wLXAFaXMAlcUlc6+Ba4FrihlFriiqHT2bQHXyFMWWz/n4tMfpFmfiSEOShnxWZG7lUd9GF3V8wa44Lj9evRZ61joHtsjfvVr6wq48BRHZE+kF3ylfozhCQ379Xg+oeH7Pvjgg+KHzQTWhx9++PDPHuzcqA6+Fgjffffd0Efvd+kpGuSeBV70NX/Excbm559/lnLd2xC1nz592vQRMVDLG+DCRAhA8LkAts3+GSntLNGazdEcLIBSsNiYX7uou8SD8cgG9tt50FcqTE5Qxa6aLKtDkWVtrNXxJESt0Acvw8aCdXwjXingVy6vM2or+sBTBFck9N76jkg8JcajdjEhrY5RWVZGb70FLiavIjdTltVnY2Xr4FHLI3BxxyDCvTL2z0xhM4NhqWIz/eW8zJOLdtEOtklL/RwHZd0CgmvGBbdt8HFeiVpZlBFRL4sx8nLZT39sm7wqICgD87wctrNOLtqm0Cg+Ud8jcJFBUXAPPKOJd+3YZNqVKUv1WwWXIi9TlqIPPGoJwcVdQVV2q3xIPHsSlIIKvj1jkAmITFk2BrUcGgFESd6ILGvnSL2UB74/BNeIwluZYxfxWom3NVaZdmXf+iq+ZQIiU1Zku80HjnsQldrD4IqUUvkZqGJ/ZhJnxiTTLnwJUynQmeED4p4JiExZqn9KvMAzBC4lMVVDZ+bLTOJMP+1pE922sk8BhJVVSxorC+u/JQcyAZEpS12jWpzs2BC4YAQ+cONXz0Fnv5AcuGjz22+/3dyJwa8Um3jqAo3yIan5wS8/PAZ9/vz5w4fBtq588BvJsnJZ/+KLLx6tsY8n4lr70Nr6C1mUS2rtRx8+yLZzSnUVXBn5yfxRcgI8w+BSnVIN2ZtPAQR4lKLIKiVHT79yWnie3nbJHiR8q1hAeL0luUp/TdbReci7hCg2m8AFwRTO+qwUzlvbFEDMBi6fiLWk87y2PTIPwPEx/Pvvvx/FlOCifFLotvWRtrXf1lVw2bUfqVvfHwIh/NkELkH+tCx4reEX3C4a6rODy9urtOkzqTIHPL0nlyq3xkcbSSNeFVxHJOIwuNRPxo9wStEJcEWLZfvOAi4kHy/Yb+vWn1K9lrycg/+n1SrgoX7Oi6jVZ+sRb6vvJsE1s1OtJMA4bwtri3sWcLUSkOM1X8lTorwtZGxxa+ULbwtLMti/xQ7KIJ05D4dPrpmdihbeJwLBxUWKaAlcXr4iK5J/rT4mL2mGHg8uH0+0VXBl2EMZM+fhTYILC+0B4JNBAUQJXCOymAxHUwKOVLVngcuvert9FXC1ErttVg5HzY57BRfA1AsszFHAhTc9VLBm8c382j8dXFFCo4/9tm4hxP4MauWW6pngUt4cyUomVQ4BRKrOK/Ep4IpuC6E/wwYrg3XQ1v9j4/oreUXeLJoOLhgGR1jg/Pfff/9w+TravMizlUZvGVt7aNcIuCI5kIevrePe/+gLuzhsQExRV762Dh7F7hcvXjB0b1DG5eXLlw96rTzaZPtG6lYO66DKu5gwWMkr5g78oU9vONvRcRVwWf2lnfBa/Qg4Sy1AI+Ci3LPQe/CxtsZ2nZR8s7lj547Wbw5c2BWVgG9NPEXH6KJkzVN8VB/c9TYd4T91eupti9oKuJA7meVq4GIAFKcyedTdR0k88Jy5eB/5WsXGGw+09hauLef5NvtnotbnqI7YnAZcDGzkyDX71AD5xItsujVw3aKPzLMWjXz3fWrutHRx/GonFxV4B67dVgM0O7hwGqgnQolvdh+ZI3tQJe/U3FHtXeCq/N7gESdXCSh2QRUe8C9wXaK2wFVJdCU44FF3n3tIvHvw8QKfek3JH+aOunnVNe7wZUnFqUweBqjl+KyJFy1s1NfyD+NH+EhbSRU79+BRckzNHdXedVtYOS2RnGcue4JrNjD5dVvgqiS6EhzwqLvPnonnF7rWhl18y5zU+66Cfm8fo8efvO1oqx+X1OJ0hrF1clUArSZxxkJz51eeU7R2cV5kw97g4pclCShuDqTsVzfAyKcz9S1wTQIuJg3B5ROSiQmqfvALPjvP1infApU2jFIPLqvP1he4KkmHQKkBskHdo67atfeuHiVsdOoQXLVY1QBhZWb6CLmUTep9Um8L1TWCfKvX69uzPWLHOrkqm0gtia+1sNDJU4XUAg19ql01cEEOrtFnCyP/rwGuSM9Z+ha4dgRXacdnP2gNEAQZeDinlmhbT0Ev2+tEmxd4t4DLy6buUj/H96QlW0r9C1w7gktJBACCp4qlABbbPScX54BSBin6Mk8u/01k6uSmQFq6LUSS8lJidSQP7SwBC7YtcB0ArtqC1N6EYHKWwOXlZp6CSiJvObkU+WfjWeA6AFy1JCEg7K7v68q7hQAaZGEuL3tiWaB6UNbsq40tcD2OzgLXTuDC1+RxO2R/1gB1fP2cfaDgaV34WQGlKD8/0CPL2unr8OPZs2fFt/4JZtDSbaH3ifHwuo5qc/28naX2AtdO4FJ3dfDNWHiiWpCM1lVwjcq/9jx1fRa4FrikXFng+vcfvgO4alngWuCScmWBa4FLvp9XkgU8WWXdFl6Sc90WVnZ0HI2zBki1a4Grb9tQ4qW+1lHXSJW3N58auXVbWNlE1sl1SaMFrsvJe4lKvbbAtcBVz5D/Rhe4Frjk21UlWdbJdcGdEi/19mzdFlZ2dARxxgDhSQTa1XrqQEmWa4HLPnHhE/KMn3PV/PH+qbmD9YvmztCHLYf5RXrZhi61q98WXlTNVcsEl/I8YGZSZII+c1XsO6I1wNXGbJwybcuUVQOU1bMLuFRjrGG9dejo0ZMJLkWWTZqeOhLRJiPqmU+yq3GO4uvjbcHV8pE+Wf9sH+bPVLyvim27gEsxJItHDYICCPWEUGQxcVpJp4yrdmXFVJXTAy7FT1XvrHy7gEtN+MwgtXQqgLBJXJOnyFKSiTwEInd1tjGOurUrM2aqLMYClHXM7QEXfaKP9M1SyLTyVfuuwUdfe+y5Crh6DLhGIBSZCiDUJFZkETiWMsFsX6lukxC3hUfHONKPH6jp8ankK/uVdZyZ5yrgmtlh2qYA4trgYhL1UtUu+ppNI2BBh/8mcq9f5CdAs+3eW95VwVVahL2djPSNgivySZHFxOmhTDI/B/oiOyI/r9UX6cdtYclm74PCdy3bR+VGPtdkXRVcNcVHjymAAI9SFFk+uaK2knCYp9jVkwg9vLV49Lzmivz3fTVdZxhb4Kp8WK4kMRY5C1xMrghk6OOl2uUTMAtElOvlRT8KSpvpWw+lnr2p92tU/zC4sMBHfd06Q6/yn+7VJM4EF74qj6dM8Hvq9kIf+0GVGOCnBVrl5cuXsqxW0kEWbKadrNN29uMNGQVkLdt7xpV44TVjZhkGlxKcmXmi08HbewS4cGvVKurtV6YsnEpZBSBT4p+lD3L82kZtbAaZpQtcSkAio2fq8z74trX1SHDhlPAnBfui2y9rN+vKTpwJVCSmtZn2+j6cIrSxRjMTvaaHY7DL2rpVfxe4aMS90CPBVVtY9S1ve3LZpLF1FVzZJ5eSQ7UY9I4p+nCiZpZucGGnr+32ihNH8vTYPiu4CIiWLxZcpaQZASpkWYCWZJf6kcRKDpTmj/Qr+g4Hl2LkjDytRIxsvgdwqbeYFqhbgAVgLHBV3qKOEvEW+2YHVyvmFhCl3Z6n4BZZvWBb4Frgkv/JHEDYSk51PAMQPKUzZNFu5c2REoB9/wLXAlf1SQi7W+8NrpFbOZ/gbGecXJSlUrzlTdDWqCpP4avp4Zh9zWXXV5Ef8YRvaGDnsxeU2/at1+lvz23h1phwge0JUVrgFiBoS3RyeZngIX+NWruiROrp82/FQy9jbm3okdnitXKjOvRbcEGej1VLhx8PwUWhpFSE9j1c9NdSHzjf3hoX6rIx9zp62r1yWvb36G7x1mzjGGlLljre8i9bH+wKwaUafOt81wj4rcds+XeJwJ91f8cAAABYSURBVALXJRbN2gJbM0SnZ8hc4wWu06fDcmDWCCxwzboyy67TR2CB6/RLuByYNQILXLOuzLLr9BFY4Dr9Ei4HZo3AAtesK7PsOn0EFrhOv4TLgVkjQHD9HyelA+cCJngHAAAAAElFTkSuQmCC;" vertex="1" parent="1">
          <mxGeometry x="842.91" y="181" width="19.09" height="19" as="geometry" />
        </mxCell>
        <mxCell id="FT5akpQHFOftVIUhpczF-16" value="" style="shape=image;verticalLabelPosition=bottom;labelBackgroundColor=#ffffff;verticalAlign=top;aspect=fixed;imageAspect=0;image=data:image/png,iVBORw0KGgoAAAANSUhEUgAAANcAAADWCAYAAABCIRcQAAAgAElEQVR4Ae1d27UctRI1NwLgG/MN/POKA5MBRMAjAkIAQgEcAYTAslMgBfBd+8D21CmXpC11Tbd6RlqrT+lRqpdqSz0zPXOevFplRWBFIDUCf/7554O8J6lSl7AVgRWBVwtclST4559/KqO3MXQPPh61UiG4GHBSGIf6vVz019KsBWJMGUvKZXsPSr9oC23ooXbuHjbPoqMnRiG43nrrrVf2evLkyaO2HbvFOv399NNPe2JZ5f31119fUW6J7hFL6qYu1Ufwca6lrFPerVP4q5YQXBCwriev1MRTgk1wzRZX1UeCazb7j7BHWW/wLHBVNpJPPvlEjWOT71bAhZMJCU16RHIfrbO52P8xLHBVwKXu6kqwbwVcRyf2DPqV9QbPAtcNg0s5XbCB2DcnSomj3hYqOmcAyBYbSjHy/SngOlNAe2w96uSq2VgbY8JYHlvHuG+rPqrginR4nbTzrNSDqNROAddZg9SyW028UnBtv3JbeEQSqj4q4DrC/tYaXmPcrmutPgQuH0TfvoZDR8hUE68WYI4p4Kr5aGNs69EcjpNGPOyDjxm3hTVdtTHaMQON7Iz6uKYtOgSuGQKx1QYELQqclTsDuFo2Wntt3c/zbfJ+9tlnrRx5GFdOLso8Oy3Fin5JAet9Q8MqxaJ8++23p72ePn3a/CzvCHB9+eWXr7777rtX33zzzRuxZd+zZ89e227XhIvPPsjiHK6Vb//8889SrijgQkyp54xU8RExVot8cmHBuGhQgOCduSiBPAJcuH1sFeUWE2ulyGrp4ngrXtCXGS/q3ZMip7lB1ahqkwwur2yBSw3xv3wKIBBjBRCRLLvxca0UWaoXLXBBpweX8lpO1b8HnwdXFFP4qZargmvm4I4kixrUiC8CBEFgqQII8JQWvldWZGvUt3e8Ihuu3efBZWNp66odVwWXasQRfHsnyxHg+u2339JCu3e80gzvEHQKcM18YjHWeydLNrjsTlqqQ2fWWuwdL67TnvQU4PIByVpgL7fWbuncO1kywYUTiYCyt4esk0JnVsmOF9aHV5aNW+WcElxbne6Z3wIVZWUnC+WWaCa4VFm//PJLyZzu/r3j1W1gwoRTgktN+C3x6d0F904WFRDKaZMpS4353vFS7crkOyW4MgOQJWvvZMkEBE4k3hbWqAJUNZ57x0u1K5PvdOCqLX72GF5rIEAordNy72TJBJeaUK0YqHLAlxUv2KQmcWZ+KL6qdimywHP1t+IzA6TIIrhaAchKlpYejh8BLurOoJnxUpNYWW+VR4mBapciCzwLXJN9WTLzVk5NAoVvgevyuzJKvBa4KsDCjoiEyirr5LpEUj0h1FNJ4btoL9dUu8oSHo+sk6sCsAWuS7Ksk2udXK/f0LikRVzLTJZYw+PedXJd4qGeEMqJpPJctJdrql1lCY9H1sm1Tq7HGVFoZW5GahKrwFH4Cm496lbtejSp0ljgWuCqpMdlaIFr3Rau28ILHlJrC1wLXIeA66effnr4aj6+nl+67Ffz/W0MPvzmw7b8mn9JTq3/+++/f6T/xYsXaQBb4FrgOgRcSuJ5QO3RnvX7XOprm8wYKbuMapciCzzrNZf4mss/SmTbI+DiScUE8m32j1DKyvxAWvERPEpRk3jE99KcTLsUWeBZ4BLBVQsofgmrtKgj/QTHyFw7Z51cfbdyKuhruWDHFrgSwKXs6kx6AEcBj8JDmSW6Tq4FrtRdH7uPUhRAqLc5iqwSAK7Zv8C1wLXAVTk9e8DH0450gWuB67Tg4psaysnFhO8Bywiv1bPAtcB1WnDx9lMBF4Fik7/Wx7EtlODiJkB7R6jiI3iUor5xsMV3PzfTLkUWeNYbGpVbMjVZlMTzi93TjgCpzCe41GSo8Sk+qvFa4KokHRZWfeNASYJMHtWuzGTJljUKppE4qv/3OdPHBa4FLvnLkr2JV7tNi2T1go38pDXQZf4LIdiulAWuBa6rgauWgFs/kCagSGvAwtg6uS6roYL+MqNeW6+5KpuIuhNHp41P6kxZXvaW9jq5LgBZ4KqAAUmGACllb0BYcPXeFm4BD+aWTjH0W7tqccuMl5rEW/2282u+cUy1i/wtuk6uCliPSDwliW3SjNYJuCN8VJN41LdoXgsIGFftUmSBZ4ErAVzK66TM268oeUb7FrguUFngqoABCYYvE9ZuuxhK5YQoJZ6XPyLLy+ixqwdIPKFKc0o+0h7SER8511OsUcmea/V7G6L2AlcDXPiH2krJTJY9ZbXA0pucR4ALa9Rr51Z+JSdOBy4YvOelfocpExD4mn/LR/AoRbHr/fffL+rDqUBb3nvvvWYS7w0unNjPnz9/sNHaSpuvRZXYQ7cCYkUWeK7+mqt0+6Ma2MtHfaSl+UoSq4lX0jHSr9jF12+Rj+wDpazaaaf6SFm15FNlWRtHYnStOacD17UCUZPLxavxbEkWRX5NN8ZKMrbY5XXOKKvkt7f9iPYClxh1u4i2zumjiRfJosxeGslS7cLcaL7tU2UpdmfKUvQdwbPAlRT1WZMl065ZZSUtYbqYw8GF+3dcMOTMJTPxMuOQadessjLjlSnLg4uvVUn5elPVOfyGhvqWt2KIvZVR+Ed5rJ7RxLMyRu3gvEjWqF2UaekRsrxPvm3ty6hnyvfgIpg8Ve0eAtctnFzKUxVIzr3LEYBQfMy0S9F3BM9h4PJHIz6jyCqZuw9lkUY2YiwzWWq6qF/hAW+mXbPKUmPB2Hlq59u65+ttHwYufzTCkFkLA04a2ZmReDX5kU70teZk2EXds8qifbNRgosHCanPfdXuodtCKHv69Okr3Fr1XFhsy482L9u/pU4dlrIOuay/8847zU/jwdsqAMtXX331yK/IfvC0gAVd0OkX07cVu46QhZhGvts+2O4vO67UMZ98ts6+UYqc9rGO2q2c4PgwuCKlo32lHWJEXqYsLJxSwNey9R5kRTGI1iPqi+YqfZmyvL6SbCUnwDMFuLxTe7RLgbO67wEQmT7a2N1yfRhcuHVBYJh8pLccrJJv+H2J7Fu5ljzc0pTsYX8mIDJl0b5bpsCDLbX1fHRykfGWg9PjW2biURZjbBfI1gFo2lja2PijMi1Z0ElZJUq7rA1R3coq2VXScWv9iE8r9uB5BC4G9d6Dx2SIEi8Kqk08zvWUgGCMS5QnV20NIrsieYpdmbK8z7fajnIgin8RXLXFvcWgwV/vMxLdllJQCYhaXLwsK9fW7clVkpcJiF5ZPkZR3Ep2n72fviIPSrlg1zIE19mDkGV/67RhgBVAtGRxUXja+CS2PvUCws719UxZXvattrlWLVoEF1F6qwHyftlkZl09bQgIL9O2R5KYdlg5qNdkEfBY+Gy7rD227u279XYLVBwPwYVFubcLJ4v3GR/8KgV8fq5vP3v27BV+ggD/HMFS1Hlh7IMPPmi+CfHhhx++nlOShX7wtRIddipF8dH7fEttmx9KvMDzGlx2x1Mn3wNfLS61MR8bACdK9GueAIpsFVzWnx6/7bx7q78G1705vre/JXBFgNuzbwRce8furPoWuHZauQWunQI9kZoFrp0WY4Frp0BPpGaBa6fFWODaKdATqVng2mkxFrh2CvREaha4dlqMBa6dAj2RmgWunRZjgWunQE+kZoFrp8VY4Nop0BOpCcH1+eefv/4aNR4BGr2O+AwF//Bg1N7aPMQEF586sLx//PFHc0lVcP3www8PT3GAf+T65ZdfXs/LfEKj6aDIgA+guUa9eYbY27ijrv6DC9G8VLYQXKMfYvonAtDeu/gfGRnxxfsRybA8AEGrqOBSZLV08QkKJGNku+07YgPEb17a+Nm6tc3XI76ZfyjpDXBhYbxTo20EY+9CcI3aPDJPAYQKLpw8BMdI7OzcWcGV+c/vTgUuLCgSLNolehKP80cSZMscgov6SVXbye9pNJ88AESrqOBSgNrSxfFZwRX98zvEsnYxJxlz0lOCK0qmkT4u9F6U4BqxdXSOAggVXHiaHQUnkD2FlPjZOajPCq7Mkyvzx2mVGPfwvHFbiMmjScZ53FXQ3rtw4awNtOtaNBNciiw1prOBi5tF5gZ46pNLTVLykTKR1UTI4stcOPoA6v2yYwog1JNLkaXGaiZwEViwfWSNSvE/NbhsEql1BgJ07zKycKpfJT4FEHuByybxTOCyeRC95irFNupnfmHs7sBlA2KDukc9ApddDGubr4NP5bVzZwKXjfGs4IrWyMazp34tcNlNysa0p36V11w2OD3GbOVFQPChIpIq41I+hIWv9wAufFDOnyMoUf9heilBM8HFn08o2dTT/+LFi60p+Gj+TYELnpUW9JHXYgMLYzeKUv0ewKWcgnhiQilbwTVyd1FaO9uffQreHLiUxVV58PmVDX6pfk/gYmKTIiasA4BK2QIu6iqtxZZ+2JW5Od80uLYG6vnz5wtc/6FFObn2ANcW8LTmZv4rYoTt5sDlAeXbtZ3V866T6xIt+8On9vRAndce4KJu0hZgesbXyXVZ76vXcLunLM493RbW4qH+qvCW28Ka/q1jC1wNSPnTp8FeHV7guoTnHm4LAa7MknJbWDuiM43dW1YJXN7frJMLcr2sLZtFJiAyZa2T68mT6i0RE4zUHsm2b29AZOqLwGV9o88eEJENVlYkA7LQr8jy8ksAxFvjtDGi0Ke+fd6SBfn+NVfJrpnB5WO7pT10cpWSI1rALcYdPdcCIvKNfQogemQxKUkRB1tX42LfhKCtnqqvkxRZKlAXuBonFz8ZR9Lgw1ZQXmyDZhbsjFhAXKyD8kI/kiAaZx95SdkPygtjqNf+KYLdYPAkB+eWaBQvGyfUcf31118PQKqB6ffff39DH222FE+rRDrsOvGJlpLd7KcsK8+uPfr9ExqltT8CXPS5RGE/7IK/NoZso49XbW2sz0MnF3Y/GBIpQV/Ub5WO1rnr2sRmnfR///vfw60Q26C+zj7fb+VzjH2ktX4r19exSD42jBOpjUvUx3EkCOzxtlAnx8BHnVYe66Dg4bwaBV9UKJ9jlM12RI8AV2SH78PXlRgDu97sI7Xzav5uApdVskedDu9FEUwmKuvU7dvsL1HselmF4CrpYj9241ZRZZXA1ZIfjc8KLtWuyKeorwtcNqFgyN6FSXNGegS4Zv35ATWJM9dZyVXFLmCgdlpZPV3gss4eAS4LbmvLGeo94GotnnLaIFbr5Lq8422TvlRXwIVcs6W2VqcC1xlAVLKxB1x28aJ6FriQGABgyWbbz9vCWjJFtkZ9ahJb/VvrkR2+T7XLzyu1i+BqnRI8uRDsjICXDLT9WwN85PxMcOF2r7Q+6OcYAWFj6Ou94PLzR9pqEmeul2KnapciCzwhuLg4NecILlVRBl/NntnHMsGVCQjlFERsFaCqa9xKYiX/etdbsa1lF3UqssBTBBd3wBI9Alx4mx32lN5uL9k6Q38muOzJVfKNgGjdVQA0JRm234LLy/TtVvIpSWx1Z9RbNmFcsQtxVUsILiQCPowlRZ0X+/ChYimoth+7bNZFG85Iv/76a2lN7Nfp8X0yxs7WEfuPP/64uj5Yp9aHulgn8CjxbMmSnPuPqZXEABOSGHYx3xQbazyKfS27Uk4uxRALoBo/DcqgNT23MoYPm1uxQhKduShJDIDtXRS7sDZqCU+u0mQAileJx/e3EqVnvAToUr+3ZYZ2y1bs1K2Y2Kc9rDzWQVm/ts8jerKTOMvHbLtkcI0EEU63EqVnPCuIM8spgYu3SogXeNQyum6q/BE+JYnv7uQaCWQPeFq8I/rPNqcELhubHnDN6L8CLvi7d8m2Sz65So76ndG3bVJsrcMGL79k11n77wFc/v9z2bzgCc2Ta8/1ng5crSS2gdtab+m6hfF7AFd2Emete7ZdwydXtKOgjxcd5k60FViY72WzDYpCSt0RJY+lrFsZ7COlLLR9H+dxLKKc36Izg4t+R9T31fxs/VY8c8bKsDG1/azb8ahOvhqdBlw1I+1YBqgow8pt1bnYEV9tzPKrfHZOra7ImxlcNd+isZK//DdPXNcSjWRes29qcDGYpAgEd6FSAHv6o8BaXRxnHyn7LS2Nsd9TzkU/x9inUHXOrOCK/KZPpK04kK91ciEn+JrLyoxssONb69OAC08J4PMWe/E/3tu+HvC0eK3cqA79P/74oxTjr7766sH20n+URz8SPdIz0gd9SpkVXKV42fipPuIfHuARLjxSFV14KgX9VvZIzO0cJfbTgEs1pAWY7HHYFRXumhxTkjjTNuizxdvDMcUuL4tzr0mPsCsz/kps1JxWZIFn+A0N5WjPDI4qqwQuHxA8QqTKzOBTAAHAHZHEPjZR+wi7GPeMlxaRT75vGnCphjBAe1HYVToVbDCVZMm0WQEX7FPsUmVZf7fWvV1Rwm+1y69bZvwV/9WcVmSBp+vkss6rhmQGSJEFu5Tik0WRvYVHTTzaxeQltbprsrhGnioxqfHQLmuHr9fsqsn2Y7Tdy9/S9jqitprT0dyorwtcVoD6duqWgIzMhV21woWzt4VRAke6Vb5orpp4LbtggyqLvtbioY7tCS7YBNujOI72KX5OAy7VkNFgjM7jydVKLLyTNKpjZJ4KCNpFIJNanV5Wy1clsVo8JXBZ+7xdLZmtcevz1npLF8bVnFZkgWf45FIN2RqU3vkEVysApWTp1Qd+m2Cl+WriKXapsjJBF9nl/Vbtaq0Nx738UmyVfsqsUTWnazLsmAwuv1AwJNN5JUAKD+zytlqHWY+SRZFPnl7f1cSjXTX5lKX4SX+3UtpF/yNKu7bq4vxIx2gfZdboYeDyRuFDZARztgt2KQUfePbajlu2aM4777zTvMXEPKWU7MJrMerm787zJwD2oB999FGaj0ocwEN/M6iicxpwKcbeCw8Wv7Wjgier4OmFlr4jxjN9zIpVj5wFrp5o7cS7wPXvL9sucD1OOPk11+Npq2UjsMC1wGXzgfUFLkZiA13gWuCK0meBK4pKZ98C1wJXlDILXFFUOvsWuBa4opRZ4Iqi0tm3wLXAFaXMAlcUlc6+Ba4FrihlFriiqHT2bQHXyFMWWz/n4tMfpFmfiSEOShnxWZG7lUd9GF3V8wa44Lj9evRZ61joHtsjfvVr6wq48BRHZE+kF3ylfozhCQ379Xg+oeH7Pvjgg+KHzQTWhx9++PDPHuzcqA6+Fgjffffd0Efvd+kpGuSeBV70NX/Excbm559/lnLd2xC1nz592vQRMVDLG+DCRAhA8LkAts3+GSntLNGazdEcLIBSsNiYX7uou8SD8cgG9tt50FcqTE5Qxa6aLKtDkWVtrNXxJESt0Acvw8aCdXwjXingVy6vM2or+sBTBFck9N76jkg8JcajdjEhrY5RWVZGb70FLiavIjdTltVnY2Xr4FHLI3BxxyDCvTL2z0xhM4NhqWIz/eW8zJOLdtEOtklL/RwHZd0CgmvGBbdt8HFeiVpZlBFRL4sx8nLZT39sm7wqICgD87wctrNOLtqm0Cg+Ud8jcJFBUXAPPKOJd+3YZNqVKUv1WwWXIi9TlqIPPGoJwcVdQVV2q3xIPHsSlIIKvj1jkAmITFk2BrUcGgFESd6ILGvnSL2UB74/BNeIwluZYxfxWom3NVaZdmXf+iq+ZQIiU1Zku80HjnsQldrD4IqUUvkZqGJ/ZhJnxiTTLnwJUynQmeED4p4JiExZqn9KvMAzBC4lMVVDZ+bLTOJMP+1pE922sk8BhJVVSxorC+u/JQcyAZEpS12jWpzs2BC4YAQ+cONXz0Fnv5AcuGjz22+/3dyJwa8Um3jqAo3yIan5wS8/PAZ9/vz5w4fBtq588BvJsnJZ/+KLLx6tsY8n4lr70Nr6C1mUS2rtRx8+yLZzSnUVXBn5yfxRcgI8w+BSnVIN2ZtPAQR4lKLIKiVHT79yWnie3nbJHiR8q1hAeL0luUp/TdbReci7hCg2m8AFwRTO+qwUzlvbFEDMBi6fiLWk87y2PTIPwPEx/Pvvvx/FlOCifFLotvWRtrXf1lVw2bUfqVvfHwIh/NkELkH+tCx4reEX3C4a6rODy9urtOkzqTIHPL0nlyq3xkcbSSNeFVxHJOIwuNRPxo9wStEJcEWLZfvOAi4kHy/Yb+vWn1K9lrycg/+n1SrgoX7Oi6jVZ+sRb6vvJsE1s1OtJMA4bwtri3sWcLUSkOM1X8lTorwtZGxxa+ULbwtLMti/xQ7KIJ05D4dPrpmdihbeJwLBxUWKaAlcXr4iK5J/rT4mL2mGHg8uH0+0VXBl2EMZM+fhTYILC+0B4JNBAUQJXCOymAxHUwKOVLVngcuvert9FXC1ErttVg5HzY57BRfA1AsszFHAhTc9VLBm8c382j8dXFFCo4/9tm4hxP4MauWW6pngUt4cyUomVQ4BRKrOK/Ep4IpuC6E/wwYrg3XQ1v9j4/oreUXeLJoOLhgGR1jg/Pfff/9w+TravMizlUZvGVt7aNcIuCI5kIevrePe/+gLuzhsQExRV762Dh7F7hcvXjB0b1DG5eXLlw96rTzaZPtG6lYO66DKu5gwWMkr5g78oU9vONvRcRVwWf2lnfBa/Qg4Sy1AI+Ci3LPQe/CxtsZ2nZR8s7lj547Wbw5c2BWVgG9NPEXH6KJkzVN8VB/c9TYd4T91eupti9oKuJA7meVq4GIAFKcyedTdR0k88Jy5eB/5WsXGGw+09hauLef5NvtnotbnqI7YnAZcDGzkyDX71AD5xItsujVw3aKPzLMWjXz3fWrutHRx/GonFxV4B67dVgM0O7hwGqgnQolvdh+ZI3tQJe/U3FHtXeCq/N7gESdXCSh2QRUe8C9wXaK2wFVJdCU44FF3n3tIvHvw8QKfek3JH+aOunnVNe7wZUnFqUweBqjl+KyJFy1s1NfyD+NH+EhbSRU79+BRckzNHdXedVtYOS2RnGcue4JrNjD5dVvgqiS6EhzwqLvPnonnF7rWhl18y5zU+66Cfm8fo8efvO1oqx+X1OJ0hrF1clUArSZxxkJz51eeU7R2cV5kw97g4pclCShuDqTsVzfAyKcz9S1wTQIuJg3B5ROSiQmqfvALPjvP1infApU2jFIPLqvP1he4KkmHQKkBskHdo67atfeuHiVsdOoQXLVY1QBhZWb6CLmUTep9Um8L1TWCfKvX69uzPWLHOrkqm0gtia+1sNDJU4XUAg19ql01cEEOrtFnCyP/rwGuSM9Z+ha4dgRXacdnP2gNEAQZeDinlmhbT0Ev2+tEmxd4t4DLy6buUj/H96QlW0r9C1w7gktJBACCp4qlABbbPScX54BSBin6Mk8u/01k6uSmQFq6LUSS8lJidSQP7SwBC7YtcB0ArtqC1N6EYHKWwOXlZp6CSiJvObkU+WfjWeA6AFy1JCEg7K7v68q7hQAaZGEuL3tiWaB6UNbsq40tcD2OzgLXTuDC1+RxO2R/1gB1fP2cfaDgaV34WQGlKD8/0CPL2unr8OPZs2fFt/4JZtDSbaH3ifHwuo5qc/28naX2AtdO4FJ3dfDNWHiiWpCM1lVwjcq/9jx1fRa4FrikXFng+vcfvgO4alngWuCScmWBa4FLvp9XkgU8WWXdFl6Sc90WVnZ0HI2zBki1a4Grb9tQ4qW+1lHXSJW3N58auXVbWNlE1sl1SaMFrsvJe4lKvbbAtcBVz5D/Rhe4Frjk21UlWdbJdcGdEi/19mzdFlZ2dARxxgDhSQTa1XrqQEmWa4HLPnHhE/KMn3PV/PH+qbmD9YvmztCHLYf5RXrZhi61q98WXlTNVcsEl/I8YGZSZII+c1XsO6I1wNXGbJwybcuUVQOU1bMLuFRjrGG9dejo0ZMJLkWWTZqeOhLRJiPqmU+yq3GO4uvjbcHV8pE+Wf9sH+bPVLyvim27gEsxJItHDYICCPWEUGQxcVpJp4yrdmXFVJXTAy7FT1XvrHy7gEtN+MwgtXQqgLBJXJOnyFKSiTwEInd1tjGOurUrM2aqLMYClHXM7QEXfaKP9M1SyLTyVfuuwUdfe+y5Crh6DLhGIBSZCiDUJFZkETiWMsFsX6lukxC3hUfHONKPH6jp8ankK/uVdZyZ5yrgmtlh2qYA4trgYhL1UtUu+ppNI2BBh/8mcq9f5CdAs+3eW95VwVVahL2djPSNgivySZHFxOmhTDI/B/oiOyI/r9UX6cdtYclm74PCdy3bR+VGPtdkXRVcNcVHjymAAI9SFFk+uaK2knCYp9jVkwg9vLV49Lzmivz3fTVdZxhb4Kp8WK4kMRY5C1xMrghk6OOl2uUTMAtElOvlRT8KSpvpWw+lnr2p92tU/zC4sMBHfd06Q6/yn+7VJM4EF74qj6dM8Hvq9kIf+0GVGOCnBVrl5cuXsqxW0kEWbKadrNN29uMNGQVkLdt7xpV44TVjZhkGlxKcmXmi08HbewS4cGvVKurtV6YsnEpZBSBT4p+lD3L82kZtbAaZpQtcSkAio2fq8z74trX1SHDhlPAnBfui2y9rN+vKTpwJVCSmtZn2+j6cIrSxRjMTvaaHY7DL2rpVfxe4aMS90CPBVVtY9S1ve3LZpLF1FVzZJ5eSQ7UY9I4p+nCiZpZucGGnr+32ihNH8vTYPiu4CIiWLxZcpaQZASpkWYCWZJf6kcRKDpTmj/Qr+g4Hl2LkjDytRIxsvgdwqbeYFqhbgAVgLHBV3qKOEvEW+2YHVyvmFhCl3Z6n4BZZvWBb4Frgkv/JHEDYSk51PAMQPKUzZNFu5c2REoB9/wLXAlf1SQi7W+8NrpFbOZ/gbGecXJSlUrzlTdDWqCpP4avp4Zh9zWXXV5Ef8YRvaGDnsxeU2/at1+lvz23h1phwge0JUVrgFiBoS3RyeZngIX+NWruiROrp82/FQy9jbm3okdnitXKjOvRbcEGej1VLhx8PwUWhpFSE9j1c9NdSHzjf3hoX6rIx9zp62r1yWvb36G7x1mzjGGlLljre8i9bH+wKwaUafOt81wj4rcds+XeJwJ91f8cAAABYSURBVALXJRbN2gJbM0SnZ8hc4wWu06fDcmDWCCxwzboyy67TR2CB6/RLuByYNQILXLOuzLLr9BFY4Dr9Ei4HZo3AAtesK7PsOn0EFrhOv4TLgVkjQHD9HyelA+cCJngHAAAAAElFTkSuQmCC;" vertex="1" parent="1">
          <mxGeometry x="842.91" y="210" width="19.09" height="19" as="geometry" />
        </mxCell>
        <mxCell id="FT5akpQHFOftVIUhpczF-20" style="edgeStyle=none;rounded=0;orthogonalLoop=1;jettySize=auto;html=1;dashed=1;" edge="1" parent="1" source="FT5akpQHFOftVIUhpczF-17" target="FT5akpQHFOftVIUhpczF-19">
          <mxGeometry relative="1" as="geometry" />
        </mxCell>
        <mxCell id="FT5akpQHFOftVIUhpczF-28" style="edgeStyle=none;rounded=0;orthogonalLoop=1;jettySize=auto;html=1;dashed=1;" edge="1" parent="1" source="FT5akpQHFOftVIUhpczF-17" target="FT5akpQHFOftVIUhpczF-26">
          <mxGeometry relative="1" as="geometry">
            <Array as="points">
              <mxPoint x="920" y="480" />
            </Array>
          </mxGeometry>
        </mxCell>
        <mxCell id="FT5akpQHFOftVIUhpczF-17" value="" style="shape=image;verticalLabelPosition=bottom;labelBackgroundColor=#ffffff;verticalAlign=top;aspect=fixed;imageAspect=0;image=data:image/png,iVBORw0KGgoAAAANSUhEUgAAANcAAADWCAYAAABCIRcQAAAgAElEQVR4Ae1d27UctRI1NwLgG/MN/POKA5MBRMAjAkIAQgEcAYTAslMgBfBd+8D21CmXpC11Tbd6RlqrT+lRqpdqSz0zPXOevFplRWBFIDUCf/7554O8J6lSl7AVgRWBVwtclST4559/KqO3MXQPPh61UiG4GHBSGIf6vVz019KsBWJMGUvKZXsPSr9oC23ooXbuHjbPoqMnRiG43nrrrVf2evLkyaO2HbvFOv399NNPe2JZ5f31119fUW6J7hFL6qYu1Ufwca6lrFPerVP4q5YQXBCwriev1MRTgk1wzRZX1UeCazb7j7BHWW/wLHBVNpJPPvlEjWOT71bAhZMJCU16RHIfrbO52P8xLHBVwKXu6kqwbwVcRyf2DPqV9QbPAtcNg0s5XbCB2DcnSomj3hYqOmcAyBYbSjHy/SngOlNAe2w96uSq2VgbY8JYHlvHuG+rPqrginR4nbTzrNSDqNROAddZg9SyW028UnBtv3JbeEQSqj4q4DrC/tYaXmPcrmutPgQuH0TfvoZDR8hUE68WYI4p4Kr5aGNs69EcjpNGPOyDjxm3hTVdtTHaMQON7Iz6uKYtOgSuGQKx1QYELQqclTsDuFo2Wntt3c/zbfJ+9tlnrRx5GFdOLso8Oy3Fin5JAet9Q8MqxaJ8++23p72ePn3a/CzvCHB9+eWXr7777rtX33zzzRuxZd+zZ89e227XhIvPPsjiHK6Vb//8889SrijgQkyp54xU8RExVot8cmHBuGhQgOCduSiBPAJcuH1sFeUWE2ulyGrp4ngrXtCXGS/q3ZMip7lB1ahqkwwur2yBSw3xv3wKIBBjBRCRLLvxca0UWaoXLXBBpweX8lpO1b8HnwdXFFP4qZargmvm4I4kixrUiC8CBEFgqQII8JQWvldWZGvUt3e8Ihuu3efBZWNp66odVwWXasQRfHsnyxHg+u2339JCu3e80gzvEHQKcM18YjHWeydLNrjsTlqqQ2fWWuwdL67TnvQU4PIByVpgL7fWbuncO1kywYUTiYCyt4esk0JnVsmOF9aHV5aNW+WcElxbne6Z3wIVZWUnC+WWaCa4VFm//PJLyZzu/r3j1W1gwoRTgktN+C3x6d0F904WFRDKaZMpS4353vFS7crkOyW4MgOQJWvvZMkEBE4k3hbWqAJUNZ57x0u1K5PvdOCqLX72GF5rIEAordNy72TJBJeaUK0YqHLAlxUv2KQmcWZ+KL6qdimywHP1t+IzA6TIIrhaAchKlpYejh8BLurOoJnxUpNYWW+VR4mBapciCzwLXJN9WTLzVk5NAoVvgevyuzJKvBa4KsDCjoiEyirr5LpEUj0h1FNJ4btoL9dUu8oSHo+sk6sCsAWuS7Ksk2udXK/f0LikRVzLTJZYw+PedXJd4qGeEMqJpPJctJdrql1lCY9H1sm1Tq7HGVFoZW5GahKrwFH4Cm496lbtejSp0ljgWuCqpMdlaIFr3Rau28ILHlJrC1wLXIeA66effnr4aj6+nl+67Ffz/W0MPvzmw7b8mn9JTq3/+++/f6T/xYsXaQBb4FrgOgRcSuJ5QO3RnvX7XOprm8wYKbuMapciCzzrNZf4mss/SmTbI+DiScUE8m32j1DKyvxAWvERPEpRk3jE99KcTLsUWeBZ4BLBVQsofgmrtKgj/QTHyFw7Z51cfbdyKuhruWDHFrgSwKXs6kx6AEcBj8JDmSW6Tq4FrtRdH7uPUhRAqLc5iqwSAK7Zv8C1wLXAVTk9e8DH0450gWuB67Tg4psaysnFhO8Bywiv1bPAtcB1WnDx9lMBF4Fik7/Wx7EtlODiJkB7R6jiI3iUor5xsMV3PzfTLkUWeNYbGpVbMjVZlMTzi93TjgCpzCe41GSo8Sk+qvFa4KokHRZWfeNASYJMHtWuzGTJljUKppE4qv/3OdPHBa4FLvnLkr2JV7tNi2T1go38pDXQZf4LIdiulAWuBa6rgauWgFs/kCagSGvAwtg6uS6roYL+MqNeW6+5KpuIuhNHp41P6kxZXvaW9jq5LgBZ4KqAAUmGACllb0BYcPXeFm4BD+aWTjH0W7tqccuMl5rEW/2282u+cUy1i/wtuk6uCliPSDwliW3SjNYJuCN8VJN41LdoXgsIGFftUmSBZ4ErAVzK66TM268oeUb7FrguUFngqoABCYYvE9ZuuxhK5YQoJZ6XPyLLy+ixqwdIPKFKc0o+0h7SER8511OsUcmea/V7G6L2AlcDXPiH2krJTJY9ZbXA0pucR4ALa9Rr51Z+JSdOBy4YvOelfocpExD4mn/LR/AoRbHr/fffL+rDqUBb3nvvvWYS7w0unNjPnz9/sNHaSpuvRZXYQ7cCYkUWeK7+mqt0+6Ma2MtHfaSl+UoSq4lX0jHSr9jF12+Rj+wDpazaaaf6SFm15FNlWRtHYnStOacD17UCUZPLxavxbEkWRX5NN8ZKMrbY5XXOKKvkt7f9iPYClxh1u4i2zumjiRfJosxeGslS7cLcaL7tU2UpdmfKUvQdwbPAlRT1WZMl065ZZSUtYbqYw8GF+3dcMOTMJTPxMuOQadessjLjlSnLg4uvVUn5elPVOfyGhvqWt2KIvZVR+Ed5rJ7RxLMyRu3gvEjWqF2UaekRsrxPvm3ty6hnyvfgIpg8Ve0eAtctnFzKUxVIzr3LEYBQfMy0S9F3BM9h4PJHIz6jyCqZuw9lkUY2YiwzWWq6qF/hAW+mXbPKUmPB2Hlq59u65+ttHwYufzTCkFkLA04a2ZmReDX5kU70teZk2EXds8qifbNRgosHCanPfdXuodtCKHv69Okr3Fr1XFhsy482L9u/pU4dlrIOuay/8847zU/jwdsqAMtXX331yK/IfvC0gAVd0OkX07cVu46QhZhGvts+2O4vO67UMZ98ts6+UYqc9rGO2q2c4PgwuCKlo32lHWJEXqYsLJxSwNey9R5kRTGI1iPqi+YqfZmyvL6SbCUnwDMFuLxTe7RLgbO67wEQmT7a2N1yfRhcuHVBYJh8pLccrJJv+H2J7Fu5ljzc0pTsYX8mIDJl0b5bpsCDLbX1fHRykfGWg9PjW2biURZjbBfI1gFo2lja2PijMi1Z0ElZJUq7rA1R3coq2VXScWv9iE8r9uB5BC4G9d6Dx2SIEi8Kqk08zvWUgGCMS5QnV20NIrsieYpdmbK8z7fajnIgin8RXLXFvcWgwV/vMxLdllJQCYhaXLwsK9fW7clVkpcJiF5ZPkZR3Ep2n72fviIPSrlg1zIE19mDkGV/67RhgBVAtGRxUXja+CS2PvUCws719UxZXvattrlWLVoEF1F6qwHyftlkZl09bQgIL9O2R5KYdlg5qNdkEfBY+Gy7rD227u279XYLVBwPwYVFubcLJ4v3GR/8KgV8fq5vP3v27BV+ggD/HMFS1Hlh7IMPPmi+CfHhhx++nlOShX7wtRIddipF8dH7fEttmx9KvMDzGlx2x1Mn3wNfLS61MR8bACdK9GueAIpsFVzWnx6/7bx7q78G1705vre/JXBFgNuzbwRce8furPoWuHZauQWunQI9kZoFrp0WY4Frp0BPpGaBa6fFWODaKdATqVng2mkxFrh2CvREaha4dlqMBa6dAj2RmgWunRZjgWunQE+kZoFrp8VY4Nop0BOpCcH1+eefv/4aNR4BGr2O+AwF//Bg1N7aPMQEF586sLx//PFHc0lVcP3www8PT3GAf+T65ZdfXs/LfEKj6aDIgA+guUa9eYbY27ijrv6DC9G8VLYQXKMfYvonAtDeu/gfGRnxxfsRybA8AEGrqOBSZLV08QkKJGNku+07YgPEb17a+Nm6tc3XI76ZfyjpDXBhYbxTo20EY+9CcI3aPDJPAYQKLpw8BMdI7OzcWcGV+c/vTgUuLCgSLNolehKP80cSZMscgov6SVXbye9pNJ88AESrqOBSgNrSxfFZwRX98zvEsnYxJxlz0lOCK0qmkT4u9F6U4BqxdXSOAggVXHiaHQUnkD2FlPjZOajPCq7Mkyvzx2mVGPfwvHFbiMmjScZ53FXQ3rtw4awNtOtaNBNciiw1prOBi5tF5gZ46pNLTVLykTKR1UTI4stcOPoA6v2yYwog1JNLkaXGaiZwEViwfWSNSvE/NbhsEql1BgJ07zKycKpfJT4FEHuByybxTOCyeRC95irFNupnfmHs7sBlA2KDukc9ApddDGubr4NP5bVzZwKXjfGs4IrWyMazp34tcNlNysa0p36V11w2OD3GbOVFQPChIpIq41I+hIWv9wAufFDOnyMoUf9heilBM8HFn08o2dTT/+LFi60p+Gj+TYELnpUW9JHXYgMLYzeKUv0ewKWcgnhiQilbwTVyd1FaO9uffQreHLiUxVV58PmVDX6pfk/gYmKTIiasA4BK2QIu6iqtxZZ+2JW5Od80uLYG6vnz5wtc/6FFObn2ANcW8LTmZv4rYoTt5sDlAeXbtZ3V866T6xIt+8On9vRAndce4KJu0hZgesbXyXVZ76vXcLunLM493RbW4qH+qvCW28Ka/q1jC1wNSPnTp8FeHV7guoTnHm4LAa7MknJbWDuiM43dW1YJXN7frJMLcr2sLZtFJiAyZa2T68mT6i0RE4zUHsm2b29AZOqLwGV9o88eEJENVlYkA7LQr8jy8ksAxFvjtDGi0Ke+fd6SBfn+NVfJrpnB5WO7pT10cpWSI1rALcYdPdcCIvKNfQogemQxKUkRB1tX42LfhKCtnqqvkxRZKlAXuBonFz8ZR9Lgw1ZQXmyDZhbsjFhAXKyD8kI/kiAaZx95SdkPygtjqNf+KYLdYPAkB+eWaBQvGyfUcf31118PQKqB6ffff39DH222FE+rRDrsOvGJlpLd7KcsK8+uPfr9ExqltT8CXPS5RGE/7IK/NoZso49XbW2sz0MnF3Y/GBIpQV/Ub5WO1rnr2sRmnfR///vfw60Q26C+zj7fb+VzjH2ktX4r19exSD42jBOpjUvUx3EkCOzxtlAnx8BHnVYe66Dg4bwaBV9UKJ9jlM12RI8AV2SH78PXlRgDu97sI7Xzav5uApdVskedDu9FEUwmKuvU7dvsL1HselmF4CrpYj9241ZRZZXA1ZIfjc8KLtWuyKeorwtcNqFgyN6FSXNGegS4Zv35ATWJM9dZyVXFLmCgdlpZPV3gss4eAS4LbmvLGeo94GotnnLaIFbr5Lq8422TvlRXwIVcs6W2VqcC1xlAVLKxB1x28aJ6FriQGABgyWbbz9vCWjJFtkZ9ahJb/VvrkR2+T7XLzyu1i+BqnRI8uRDsjICXDLT9WwN85PxMcOF2r7Q+6OcYAWFj6Ou94PLzR9pqEmeul2KnapciCzwhuLg4NecILlVRBl/NntnHMsGVCQjlFERsFaCqa9xKYiX/etdbsa1lF3UqssBTBBd3wBI9Alx4mx32lN5uL9k6Q38muOzJVfKNgGjdVQA0JRm234LLy/TtVvIpSWx1Z9RbNmFcsQtxVUsILiQCPowlRZ0X+/ChYimoth+7bNZFG85Iv/76a2lN7Nfp8X0yxs7WEfuPP/64uj5Yp9aHulgn8CjxbMmSnPuPqZXEABOSGHYx3xQbazyKfS27Uk4uxRALoBo/DcqgNT23MoYPm1uxQhKduShJDIDtXRS7sDZqCU+u0mQAileJx/e3EqVnvAToUr+3ZYZ2y1bs1K2Y2Kc9rDzWQVm/ts8jerKTOMvHbLtkcI0EEU63EqVnPCuIM8spgYu3SogXeNQyum6q/BE+JYnv7uQaCWQPeFq8I/rPNqcELhubHnDN6L8CLvi7d8m2Sz65So76ndG3bVJsrcMGL79k11n77wFc/v9z2bzgCc2Ta8/1ng5crSS2gdtab+m6hfF7AFd2Emete7ZdwydXtKOgjxcd5k60FViY72WzDYpCSt0RJY+lrFsZ7COlLLR9H+dxLKKc36Izg4t+R9T31fxs/VY8c8bKsDG1/azb8ahOvhqdBlw1I+1YBqgow8pt1bnYEV9tzPKrfHZOra7ImxlcNd+isZK//DdPXNcSjWRes29qcDGYpAgEd6FSAHv6o8BaXRxnHyn7LS2Nsd9TzkU/x9inUHXOrOCK/KZPpK04kK91ciEn+JrLyoxssONb69OAC08J4PMWe/E/3tu+HvC0eK3cqA79P/74oxTjr7766sH20n+URz8SPdIz0gd9SpkVXKV42fipPuIfHuARLjxSFV14KgX9VvZIzO0cJfbTgEs1pAWY7HHYFRXumhxTkjjTNuizxdvDMcUuL4tzr0mPsCsz/kps1JxWZIFn+A0N5WjPDI4qqwQuHxA8QqTKzOBTAAHAHZHEPjZR+wi7GPeMlxaRT75vGnCphjBAe1HYVToVbDCVZMm0WQEX7FPsUmVZf7fWvV1Rwm+1y69bZvwV/9WcVmSBp+vkss6rhmQGSJEFu5Tik0WRvYVHTTzaxeQltbprsrhGnioxqfHQLmuHr9fsqsn2Y7Tdy9/S9jqitprT0dyorwtcVoD6duqWgIzMhV21woWzt4VRAke6Vb5orpp4LbtggyqLvtbioY7tCS7YBNujOI72KX5OAy7VkNFgjM7jydVKLLyTNKpjZJ4KCNpFIJNanV5Wy1clsVo8JXBZ+7xdLZmtcevz1npLF8bVnFZkgWf45FIN2RqU3vkEVysApWTp1Qd+m2Cl+WriKXapsjJBF9nl/Vbtaq0Nx738UmyVfsqsUTWnazLsmAwuv1AwJNN5JUAKD+zytlqHWY+SRZFPnl7f1cSjXTX5lKX4SX+3UtpF/yNKu7bq4vxIx2gfZdboYeDyRuFDZARztgt2KQUfePbajlu2aM4777zTvMXEPKWU7MJrMerm787zJwD2oB999FGaj0ocwEN/M6iicxpwKcbeCw8Wv7Wjgier4OmFlr4jxjN9zIpVj5wFrp5o7cS7wPXvL9sucD1OOPk11+Npq2UjsMC1wGXzgfUFLkZiA13gWuCK0meBK4pKZ98C1wJXlDILXFFUOvsWuBa4opRZ4Iqi0tm3wLXAFaXMAlcUlc6+Ba4FrihlFriiqHT2bQHXyFMWWz/n4tMfpFmfiSEOShnxWZG7lUd9GF3V8wa44Lj9evRZ61joHtsjfvVr6wq48BRHZE+kF3ylfozhCQ379Xg+oeH7Pvjgg+KHzQTWhx9++PDPHuzcqA6+Fgjffffd0Efvd+kpGuSeBV70NX/Excbm559/lnLd2xC1nz592vQRMVDLG+DCRAhA8LkAts3+GSntLNGazdEcLIBSsNiYX7uou8SD8cgG9tt50FcqTE5Qxa6aLKtDkWVtrNXxJESt0Acvw8aCdXwjXingVy6vM2or+sBTBFck9N76jkg8JcajdjEhrY5RWVZGb70FLiavIjdTltVnY2Xr4FHLI3BxxyDCvTL2z0xhM4NhqWIz/eW8zJOLdtEOtklL/RwHZd0CgmvGBbdt8HFeiVpZlBFRL4sx8nLZT39sm7wqICgD87wctrNOLtqm0Cg+Ud8jcJFBUXAPPKOJd+3YZNqVKUv1WwWXIi9TlqIPPGoJwcVdQVV2q3xIPHsSlIIKvj1jkAmITFk2BrUcGgFESd6ILGvnSL2UB74/BNeIwluZYxfxWom3NVaZdmXf+iq+ZQIiU1Zku80HjnsQldrD4IqUUvkZqGJ/ZhJnxiTTLnwJUynQmeED4p4JiExZqn9KvMAzBC4lMVVDZ+bLTOJMP+1pE922sk8BhJVVSxorC+u/JQcyAZEpS12jWpzs2BC4YAQ+cONXz0Fnv5AcuGjz22+/3dyJwa8Um3jqAo3yIan5wS8/PAZ9/vz5w4fBtq588BvJsnJZ/+KLLx6tsY8n4lr70Nr6C1mUS2rtRx8+yLZzSnUVXBn5yfxRcgI8w+BSnVIN2ZtPAQR4lKLIKiVHT79yWnie3nbJHiR8q1hAeL0luUp/TdbReci7hCg2m8AFwRTO+qwUzlvbFEDMBi6fiLWk87y2PTIPwPEx/Pvvvx/FlOCifFLotvWRtrXf1lVw2bUfqVvfHwIh/NkELkH+tCx4reEX3C4a6rODy9urtOkzqTIHPL0nlyq3xkcbSSNeFVxHJOIwuNRPxo9wStEJcEWLZfvOAi4kHy/Yb+vWn1K9lrycg/+n1SrgoX7Oi6jVZ+sRb6vvJsE1s1OtJMA4bwtri3sWcLUSkOM1X8lTorwtZGxxa+ULbwtLMti/xQ7KIJ05D4dPrpmdihbeJwLBxUWKaAlcXr4iK5J/rT4mL2mGHg8uH0+0VXBl2EMZM+fhTYILC+0B4JNBAUQJXCOymAxHUwKOVLVngcuvert9FXC1ErttVg5HzY57BRfA1AsszFHAhTc9VLBm8c382j8dXFFCo4/9tm4hxP4MauWW6pngUt4cyUomVQ4BRKrOK/Ep4IpuC6E/wwYrg3XQ1v9j4/oreUXeLJoOLhgGR1jg/Pfff/9w+TravMizlUZvGVt7aNcIuCI5kIevrePe/+gLuzhsQExRV762Dh7F7hcvXjB0b1DG5eXLlw96rTzaZPtG6lYO66DKu5gwWMkr5g78oU9vONvRcRVwWf2lnfBa/Qg4Sy1AI+Ci3LPQe/CxtsZ2nZR8s7lj547Wbw5c2BWVgG9NPEXH6KJkzVN8VB/c9TYd4T91eupti9oKuJA7meVq4GIAFKcyedTdR0k88Jy5eB/5WsXGGw+09hauLef5NvtnotbnqI7YnAZcDGzkyDX71AD5xItsujVw3aKPzLMWjXz3fWrutHRx/GonFxV4B67dVgM0O7hwGqgnQolvdh+ZI3tQJe/U3FHtXeCq/N7gESdXCSh2QRUe8C9wXaK2wFVJdCU44FF3n3tIvHvw8QKfek3JH+aOunnVNe7wZUnFqUweBqjl+KyJFy1s1NfyD+NH+EhbSRU79+BRckzNHdXedVtYOS2RnGcue4JrNjD5dVvgqiS6EhzwqLvPnonnF7rWhl18y5zU+66Cfm8fo8efvO1oqx+X1OJ0hrF1clUArSZxxkJz51eeU7R2cV5kw97g4pclCShuDqTsVzfAyKcz9S1wTQIuJg3B5ROSiQmqfvALPjvP1infApU2jFIPLqvP1he4KkmHQKkBskHdo67atfeuHiVsdOoQXLVY1QBhZWb6CLmUTep9Um8L1TWCfKvX69uzPWLHOrkqm0gtia+1sNDJU4XUAg19ql01cEEOrtFnCyP/rwGuSM9Z+ha4dgRXacdnP2gNEAQZeDinlmhbT0Ev2+tEmxd4t4DLy6buUj/H96QlW0r9C1w7gktJBACCp4qlABbbPScX54BSBin6Mk8u/01k6uSmQFq6LUSS8lJidSQP7SwBC7YtcB0ArtqC1N6EYHKWwOXlZp6CSiJvObkU+WfjWeA6AFy1JCEg7K7v68q7hQAaZGEuL3tiWaB6UNbsq40tcD2OzgLXTuDC1+RxO2R/1gB1fP2cfaDgaV34WQGlKD8/0CPL2unr8OPZs2fFt/4JZtDSbaH3ifHwuo5qc/28naX2AtdO4FJ3dfDNWHiiWpCM1lVwjcq/9jx1fRa4FrikXFng+vcfvgO4alngWuCScmWBa4FLvp9XkgU8WWXdFl6Sc90WVnZ0HI2zBki1a4Grb9tQ4qW+1lHXSJW3N58auXVbWNlE1sl1SaMFrsvJe4lKvbbAtcBVz5D/Rhe4Frjk21UlWdbJdcGdEi/19mzdFlZ2dARxxgDhSQTa1XrqQEmWa4HLPnHhE/KMn3PV/PH+qbmD9YvmztCHLYf5RXrZhi61q98WXlTNVcsEl/I8YGZSZII+c1XsO6I1wNXGbJwybcuUVQOU1bMLuFRjrGG9dejo0ZMJLkWWTZqeOhLRJiPqmU+yq3GO4uvjbcHV8pE+Wf9sH+bPVLyvim27gEsxJItHDYICCPWEUGQxcVpJp4yrdmXFVJXTAy7FT1XvrHy7gEtN+MwgtXQqgLBJXJOnyFKSiTwEInd1tjGOurUrM2aqLMYClHXM7QEXfaKP9M1SyLTyVfuuwUdfe+y5Crh6DLhGIBSZCiDUJFZkETiWMsFsX6lukxC3hUfHONKPH6jp8ankK/uVdZyZ5yrgmtlh2qYA4trgYhL1UtUu+ppNI2BBh/8mcq9f5CdAs+3eW95VwVVahL2djPSNgivySZHFxOmhTDI/B/oiOyI/r9UX6cdtYclm74PCdy3bR+VGPtdkXRVcNcVHjymAAI9SFFk+uaK2knCYp9jVkwg9vLV49Lzmivz3fTVdZxhb4Kp8WK4kMRY5C1xMrghk6OOl2uUTMAtElOvlRT8KSpvpWw+lnr2p92tU/zC4sMBHfd06Q6/yn+7VJM4EF74qj6dM8Hvq9kIf+0GVGOCnBVrl5cuXsqxW0kEWbKadrNN29uMNGQVkLdt7xpV44TVjZhkGlxKcmXmi08HbewS4cGvVKurtV6YsnEpZBSBT4p+lD3L82kZtbAaZpQtcSkAio2fq8z74trX1SHDhlPAnBfui2y9rN+vKTpwJVCSmtZn2+j6cIrSxRjMTvaaHY7DL2rpVfxe4aMS90CPBVVtY9S1ve3LZpLF1FVzZJ5eSQ7UY9I4p+nCiZpZucGGnr+32ihNH8vTYPiu4CIiWLxZcpaQZASpkWYCWZJf6kcRKDpTmj/Qr+g4Hl2LkjDytRIxsvgdwqbeYFqhbgAVgLHBV3qKOEvEW+2YHVyvmFhCl3Z6n4BZZvWBb4Frgkv/JHEDYSk51PAMQPKUzZNFu5c2REoB9/wLXAlf1SQi7W+8NrpFbOZ/gbGecXJSlUrzlTdDWqCpP4avp4Zh9zWXXV5Ef8YRvaGDnsxeU2/at1+lvz23h1phwge0JUVrgFiBoS3RyeZngIX+NWruiROrp82/FQy9jbm3okdnitXKjOvRbcEGej1VLhx8PwUWhpFSE9j1c9NdSHzjf3hoX6rIx9zp62r1yWvb36G7x1mzjGGlLljre8i9bH+wKwaUafOt81wj4rcds+XeJwJ91f8cAAABYSURBVALXJRbN2gJbM0SnZ8hc4wWu06fDcmDWCCxwzboyy67TR2CB6/RLuByYNQILXLOuzLLr9BFY4Dr9Ei4HZo3AAtesK7PsOn0EFrhOv4TLgVkjQHD9HyelA+cCJngHAAAAAElFTkSuQmCC;" vertex="1" parent="1">
          <mxGeometry x="890" y="75" width="60.28" height="60" as="geometry" />
        </mxCell>
        <mxCell id="FT5akpQHFOftVIUhpczF-19" value="&lt;h1&gt;单接口+指定Mock文件 =&amp;gt; 二维码&lt;/h1&gt;&lt;p&gt;1. 该二维码 可唯一定位一个 “&lt;b&gt;&lt;i&gt;&lt;font color=&quot;#00994d&quot;&gt;接口+参数+mock文件&lt;/font&gt;&lt;/i&gt;&lt;/b&gt;”&lt;br&gt;&lt;/p&gt;&lt;p&gt;2. 这里需要做到二维码扫描，手机即可生效&lt;/p&gt;&lt;p&gt;3. 跟之前的区别是，&lt;b&gt;&lt;i&gt;&lt;font color=&quot;#cc0066&quot;&gt;开启了哪些接口的mock，这个列表是存储在客户端&lt;/font&gt;&lt;/i&gt;&lt;/b&gt;&lt;/p&gt;&lt;p&gt;4. 该二维码的值格式大致: &lt;b&gt;&lt;i&gt;[apiPath]:[guid]&lt;/i&gt;&lt;/b&gt;&lt;/p&gt;&lt;p&gt;5. &lt;b&gt;&lt;i&gt;&lt;font color=&quot;#cc0066&quot;&gt;apiPath&lt;/font&gt;&lt;/i&gt;&lt;/b&gt;: 指的是被mock的接口的path&lt;/p&gt;&lt;p&gt;6. &lt;b&gt;&lt;i&gt;&lt;font color=&quot;#cc0066&quot;&gt;guid&lt;/font&gt;&lt;/i&gt;&lt;/b&gt;: 在mock平台，唯一定位一个mock的标识（接口path+参数+mock文件）&lt;/p&gt;&lt;p&gt;7. 备注: mock平台的参数匹配是通过“动态脚本” 来做的&lt;/p&gt;" style="text;html=1;strokeColor=default;fillColor=none;spacing=5;spacingTop=-20;whiteSpace=wrap;overflow=hidden;rounded=0;dashed=1;" vertex="1" parent="1">
          <mxGeometry x="1100" y="30" width="480" height="240" as="geometry" />
        </mxCell>
        <mxCell id="FT5akpQHFOftVIUhpczF-25" style="edgeStyle=none;rounded=0;orthogonalLoop=1;jettySize=auto;html=1;" edge="1" parent="1" source="FT5akpQHFOftVIUhpczF-22" target="FT5akpQHFOftVIUhpczF-24">
          <mxGeometry relative="1" as="geometry" />
        </mxCell>
        <mxCell id="FT5akpQHFOftVIUhpczF-22" value="&lt;b&gt;&lt;font style=&quot;font-size: 14px&quot;&gt;准备录制&lt;/font&gt;&lt;/b&gt;&lt;br&gt;（准备mock）" style="rounded=1;whiteSpace=wrap;html=1;strokeColor=default;" vertex="1" parent="1">
          <mxGeometry x="210" y="615" width="120" height="60" as="geometry" />
        </mxCell>
        <mxCell id="FT5akpQHFOftVIUhpczF-30" style="edgeStyle=none;rounded=0;orthogonalLoop=1;jettySize=auto;html=1;" edge="1" parent="1" source="FT5akpQHFOftVIUhpczF-24" target="FT5akpQHFOftVIUhpczF-29">
          <mxGeometry relative="1" as="geometry" />
        </mxCell>
        <mxCell id="FT5akpQHFOftVIUhpczF-24" value="&lt;span style=&quot;font-size: 14px&quot;&gt;&lt;b&gt;开启Mock列表&lt;/b&gt;&lt;/span&gt;" style="rounded=1;whiteSpace=wrap;html=1;strokeColor=default;" vertex="1" parent="1">
          <mxGeometry x="390" y="615" width="120" height="60" as="geometry" />
        </mxCell>
        <mxCell id="FT5akpQHFOftVIUhpczF-27" style="edgeStyle=none;rounded=0;orthogonalLoop=1;jettySize=auto;html=1;dashed=1;" edge="1" parent="1" source="FT5akpQHFOftVIUhpczF-26" target="FT5akpQHFOftVIUhpczF-24">
          <mxGeometry relative="1" as="geometry" />
        </mxCell>
        <mxCell id="FT5akpQHFOftVIUhpczF-26" value="&lt;h1&gt;扫描“Mock平台”中二维码&lt;/h1&gt;&lt;p&gt;1. 这里扫描的不是 “域账号(crop邮箱)”的二维码&lt;/p&gt;&lt;p&gt;2. 而是具体接口+mock文件对应的的二维码&lt;/p&gt;&lt;p&gt;3. 如果是需要mock多个接口，这里需要扫描多个&lt;/p&gt;" style="text;html=1;strokeColor=default;fillColor=none;spacing=5;spacingTop=-20;whiteSpace=wrap;overflow=hidden;rounded=0;dashed=1;" vertex="1" parent="1">
          <mxGeometry x="292.5" y="420" width="315" height="120" as="geometry" />
        </mxCell>
        <mxCell id="FT5akpQHFOftVIUhpczF-32" style="edgeStyle=none;rounded=0;orthogonalLoop=1;jettySize=auto;html=1;" edge="1" parent="1" source="FT5akpQHFOftVIUhpczF-29" target="FT5akpQHFOftVIUhpczF-31">
          <mxGeometry relative="1" as="geometry" />
        </mxCell>
        <mxCell id="FT5akpQHFOftVIUhpczF-29" value="&lt;font style=&quot;font-size: 14px&quot;&gt;&lt;b&gt;此时mock已经准备好&lt;/b&gt;&lt;/font&gt;" style="rounded=1;whiteSpace=wrap;html=1;strokeColor=default;strokeWidth=1;" vertex="1" parent="1">
          <mxGeometry x="600" y="615" width="160" height="60" as="geometry" />
        </mxCell>
        <mxCell id="FT5akpQHFOftVIUhpczF-31" value="&lt;font style=&quot;font-size: 14px&quot;&gt;&lt;b&gt;开始UI自动化录制&lt;/b&gt;&lt;/font&gt;" style="rounded=1;whiteSpace=wrap;html=1;strokeColor=default;strokeWidth=1;" vertex="1" parent="1">
          <mxGeometry x="830" y="615" width="120" height="60" as="geometry" />
        </mxCell>
        <mxCell id="FT5akpQHFOftVIUhpczF-39" style="edgeStyle=none;rounded=0;orthogonalLoop=1;jettySize=auto;html=1;" edge="1" parent="1" source="FT5akpQHFOftVIUhpczF-33" target="FT5akpQHFOftVIUhpczF-40">
          <mxGeometry relative="1" as="geometry" />
        </mxCell>
        <mxCell id="FT5akpQHFOftVIUhpczF-33" value="" style="html=1;verticalLabelPosition=bottom;labelBackgroundColor=#ffffff;verticalAlign=top;shadow=0;dashed=0;strokeWidth=1;shape=mxgraph.ios7.misc.iphone;strokeColor=#666666;fillColor=#f5f5f5;fontColor=#333333;" vertex="1" parent="1">
          <mxGeometry x="80" y="1050" width="60" height="120" as="geometry" />
        </mxCell>
        <mxCell id="FT5akpQHFOftVIUhpczF-55" style="edgeStyle=none;rounded=0;orthogonalLoop=1;jettySize=auto;html=1;dashed=1;" edge="1" parent="1" source="FT5akpQHFOftVIUhpczF-34" target="FT5akpQHFOftVIUhpczF-41">
          <mxGeometry relative="1" as="geometry" />
        </mxCell>
        <mxCell id="FT5akpQHFOftVIUhpczF-34" value="" style="rounded=0;whiteSpace=wrap;html=1;strokeColor=#6c8ebf;strokeWidth=1;fillColor=#dae8fc;" vertex="1" parent="1">
          <mxGeometry x="370" y="820" width="290" height="190" as="geometry" />
        </mxCell>
        <mxCell id="FT5akpQHFOftVIUhpczF-35" value="&lt;b&gt;本地mock配置列表：&lt;/b&gt;" style="text;html=1;strokeColor=none;fillColor=none;align=left;verticalAlign=middle;whiteSpace=wrap;rounded=0;" vertex="1" parent="1">
          <mxGeometry x="380" y="830" width="130" height="20" as="geometry" />
        </mxCell>
        <mxCell id="FT5akpQHFOftVIUhpczF-36" value="&lt;font style=&quot;font-size: 14px&quot;&gt;1. [api/path_0]:[guid_xxx_0]&lt;/font&gt;" style="text;html=1;strokeColor=default;fillColor=none;align=left;verticalAlign=middle;whiteSpace=wrap;rounded=0;dashed=1;" vertex="1" parent="1">
          <mxGeometry x="410" y="860" width="200" height="25" as="geometry" />
        </mxCell>
        <mxCell id="FT5akpQHFOftVIUhpczF-37" value="&lt;font style=&quot;font-size: 14px&quot;&gt;2. [api/path_1]:[guid_xxx_1]&lt;/font&gt;" style="text;html=1;strokeColor=default;fillColor=none;align=left;verticalAlign=middle;whiteSpace=wrap;rounded=0;dashed=1;" vertex="1" parent="1">
          <mxGeometry x="410" y="897.5" width="200" height="25" as="geometry" />
        </mxCell>
        <mxCell id="FT5akpQHFOftVIUhpczF-38" value="&lt;font style=&quot;font-size: 14px&quot;&gt;3. [api/path_1]:[guid_xxx_2]&lt;/font&gt;" style="text;html=1;strokeColor=default;fillColor=none;align=left;verticalAlign=middle;whiteSpace=wrap;rounded=0;dashed=1;" vertex="1" parent="1">
          <mxGeometry x="410" y="940" width="200" height="25" as="geometry" />
        </mxCell>
        <mxCell id="FT5akpQHFOftVIUhpczF-42" style="edgeStyle=none;rounded=0;orthogonalLoop=1;jettySize=auto;html=1;" edge="1" parent="1" source="FT5akpQHFOftVIUhpczF-40" target="FT5akpQHFOftVIUhpczF-41">
          <mxGeometry relative="1" as="geometry" />
        </mxCell>
        <mxCell id="FT5akpQHFOftVIUhpczF-40" value="&lt;b style=&quot;font-size: 14px&quot;&gt;接口请求&lt;/b&gt;&lt;br&gt;&lt;font style=&quot;font-size: 12px&quot;&gt;（path: api/path_0）&lt;/font&gt;" style="rounded=1;whiteSpace=wrap;html=1;strokeColor=default;" vertex="1" parent="1">
          <mxGeometry x="240" y="1080" width="140" height="60" as="geometry" />
        </mxCell>
        <mxCell id="FT5akpQHFOftVIUhpczF-44" style="edgeStyle=none;rounded=0;orthogonalLoop=1;jettySize=auto;html=1;" edge="1" parent="1" source="FT5akpQHFOftVIUhpczF-41" target="FT5akpQHFOftVIUhpczF-43">
          <mxGeometry relative="1" as="geometry" />
        </mxCell>
        <mxCell id="FT5akpQHFOftVIUhpczF-41" value="&lt;span&gt;&lt;b&gt;&lt;font style=&quot;font-size: 14px&quot;&gt;使用配置&lt;/font&gt;&lt;/b&gt;&lt;br&gt;（找到一个匹配）&lt;br&gt;&lt;/span&gt;" style="rounded=1;whiteSpace=wrap;html=1;strokeColor=default;" vertex="1" parent="1">
          <mxGeometry x="445" y="1080" width="140" height="60" as="geometry" />
        </mxCell>
        <mxCell id="FT5akpQHFOftVIUhpczF-48" style="edgeStyle=none;rounded=0;orthogonalLoop=1;jettySize=auto;html=1;" edge="1" parent="1" source="FT5akpQHFOftVIUhpczF-43" target="FT5akpQHFOftVIUhpczF-46">
          <mxGeometry relative="1" as="geometry">
            <mxPoint x="800" y="1177.3692418772562" as="sourcePoint" />
          </mxGeometry>
        </mxCell>
        <mxCell id="FT5akpQHFOftVIUhpczF-43" value="&lt;span&gt;&lt;span style=&quot;font-size: 14px&quot;&gt;&lt;b&gt;Request.header&lt;br&gt;&lt;/b&gt;&lt;/span&gt;（带上该配置）&lt;br&gt;&lt;/span&gt;" style="rounded=1;whiteSpace=wrap;html=1;strokeColor=default;" vertex="1" parent="1">
          <mxGeometry x="650" y="1080" width="140" height="60" as="geometry" />
        </mxCell>
        <mxCell id="FT5akpQHFOftVIUhpczF-54" style="edgeStyle=none;rounded=0;orthogonalLoop=1;jettySize=auto;html=1;dashed=1;" edge="1" parent="1" source="FT5akpQHFOftVIUhpczF-46" target="FT5akpQHFOftVIUhpczF-53">
          <mxGeometry relative="1" as="geometry" />
        </mxCell>
        <mxCell id="FT5akpQHFOftVIUhpczF-46" value="" style="rounded=0;whiteSpace=wrap;html=1;strokeColor=#9673a6;strokeWidth=1;fillColor=#e1d5e7;" vertex="1" parent="1">
          <mxGeometry x="870" y="1070" width="208" height="80" as="geometry" />
        </mxCell>
        <mxCell id="FT5akpQHFOftVIUhpczF-47" value="&lt;b&gt;网关:&lt;/b&gt;" style="text;html=1;strokeColor=none;fillColor=none;align=left;verticalAlign=middle;whiteSpace=wrap;rounded=0;" vertex="1" parent="1">
          <mxGeometry x="878" y="1080" width="130" height="20" as="geometry" />
        </mxCell>
        <mxCell id="FT5akpQHFOftVIUhpczF-52" value="根据header来决定是否转发给Mock平台" style="text;html=1;strokeColor=none;fillColor=none;align=center;verticalAlign=middle;whiteSpace=wrap;rounded=0;" vertex="1" parent="1">
          <mxGeometry x="909" y="1100" width="130" height="40" as="geometry" />
        </mxCell>
        <mxCell id="FT5akpQHFOftVIUhpczF-53" value="&lt;h1&gt;解析 header&amp;nbsp;&lt;/h1&gt;&lt;span&gt;1. 解析 [api/path_0]:[guid_xxx_0]&lt;br&gt;2. 拿到 guid_xxx_0 然后决定是否真的要mock，以及使用哪个mock文件&lt;br&gt;&lt;/span&gt;" style="text;html=1;strokeColor=default;fillColor=none;spacing=5;spacingTop=-20;whiteSpace=wrap;overflow=hidden;rounded=0;dashed=1;" vertex="1" parent="1">
          <mxGeometry x="1030" y="940" width="400" height="90" as="geometry" />
        </mxCell>
      </root>
    </mxGraphModel>
  </diagram>
</mxfile>
